<?xml version="1.0" encoding="UTF-8"?>
<svg id="Layer_1" xmlns="http://www.w3.org/2000/svg" viewBox="0 0 77.68 44.95">
  <defs>
    <style>
      .cls-1 {
        fill: #394c59;
        fill-rule: evenodd;
      }
    </style>
  </defs>
  <path class="cls-1" d="M50,42.14c0,.42,0,.85.05,1.17h-.8l-.05-.42c-.21.27-.53.53-.95.53-.74,0-1.06-.58-1.06-1.64v-2.55h.9v2.44c0,.58.11.95.48.95.27,0,.42-.21.48-.37.05-.11.05-.21.05-.37v-2.65h.9v2.92ZM51.17,40.33v-1.17h.74l.05.64h.05c.16-.42.48-.69.85-.69.05,0,.11,0,.16.05v.9c-.05-.05-.11-.05-.16-.05-.32,0-.64.27-.74.74,0,.11-.05.21-.05.37v2.17h-.9v-2.97ZM55.15,43.41c-.85,0-1.43-.74-1.43-2.12,0-1.54.74-2.17,1.48-2.17.85,0,1.48.74,1.48,2.12,0,1.7-.9,2.17-1.48,2.17h-.05ZM55.2,42.67c.48,0,.53-.8.53-1.43,0-.58-.05-1.43-.53-1.43-.53,0-.58.85-.58,1.43,0,.69.11,1.43.58,1.43ZM57.59,40.49c0-.58-.05-.95-.05-1.27h.8l.05.48c.21-.37.53-.58.85-.58.85,0,1.27.9,1.27,2.12,0,1.54-.64,2.17-1.33,2.17-.37,0-.58-.27-.69-.48h-.05v2.02h-.85v-4.45ZM58.44,41.82c0,.11.05.27.05.32.11.42.32.53.48.53.48,0,.64-.69.64-1.43,0-.8-.21-1.33-.64-1.33-.21,0-.42.21-.48.53,0,.05-.05.16-.05.27v1.11ZM65.91,41.5c0,.9.42,1.17.9,1.17.32,0,.58-.05.74-.16l.11.69c-.21.11-.64.16-1.01.16-1.06,0-1.64-.74-1.64-2.02,0-1.38.64-2.23,1.54-2.23.85,0,1.33.8,1.33,1.91,0,.21-.05.37-.05.48h-1.91ZM67.03,40.86c0-.69-.21-1.06-.53-1.06-.42,0-.58.58-.58,1.06h1.11ZM0,37.68c.26-.05.64-.11,1.06-.11.58,0,1.11.11,1.43.42.32.32.48.74.48,1.22,0,.58-.16,1.01-.42,1.27-.37.42-.9.58-1.38.58h-.26v2.23h-.9v-5.62ZM.9,40.33c.05.05.11.05.21.05.58,0,.95-.42.95-1.06,0-.53-.26-1.01-.85-1.01-.16,0-.26,0-.32.05v1.96ZM6.36,42.4c0,.32,0,.64.05.9h-.85l-.05-.42c-.21.32-.53.53-.9.53-.58,0-1.01-.53-1.01-1.22,0-1.06.9-1.54,1.8-1.54v-.11c0-.42-.16-.74-.58-.74-.32,0-.58.11-.8.26l-.16-.64c.21-.16.64-.32,1.11-.32,1.06,0,1.38.74,1.38,1.64v1.64ZM5.46,41.23c-.37,0-1.01.11-1.01.85,0,.48.27.64.48.64s.42-.16.48-.48c.05-.05.05-.16.05-.21v-.8ZM7.48,40.33v-1.17h.8l.05.64c.16-.42.48-.69.85-.69.05,0,.11,0,.21.05v.9c-.11-.05-.16-.05-.21-.05-.32,0-.64.27-.74.74,0,.11-.05.21-.05.37v2.17h-.9v-2.97ZM10.18,37.47h.9v5.83h-.9v-5.83ZM14.69,42.4c0,.32,0,.64.05.9h-.8l-.05-.42c-.21.32-.53.53-.9.53-.58,0-1.06-.53-1.06-1.22,0-1.06.9-1.54,1.86-1.54v-.11c0-.42-.16-.74-.64-.74-.27,0-.53.11-.74.26l-.16-.64c.16-.16.64-.32,1.11-.32,1.06,0,1.33.74,1.33,1.64v1.64ZM13.79,41.23c-.32,0-.95.11-.95.85,0,.48.21.64.42.64.27,0,.48-.16.53-.48v-1.01ZM15.85,40.33c0-.42,0-.8-.05-1.17h.8l.05.53c.21-.32.53-.58,1.01-.58.42,0,.69.21.85.58.11-.16.27-.32.42-.42.16-.11.37-.16.58-.16.64,0,1.06.53,1.06,1.54v2.65h-.9v-2.49c0-.48-.11-.95-.48-.95-.27,0-.42.21-.53.53v2.92h-.9v-2.65c0-.32-.05-.8-.48-.8-.21,0-.42.21-.48.53-.05.11-.05.21-.05.32v2.6h-.9v-2.97ZM22.43,41.5c0,.9.42,1.17.9,1.17.32,0,.58-.05.74-.16l.16.69c-.26.11-.69.16-1.06.16-1.06,0-1.64-.74-1.64-2.02,0-1.38.69-2.23,1.54-2.23.9,0,1.33.8,1.33,1.91,0,.21,0,.37-.05.48h-1.91ZM23.54,40.86c0-.69-.21-1.06-.53-1.06-.37,0-.58.58-.58,1.06h1.11ZM25.35,40.33v-1.17h.8v.53h.05c.16-.37.53-.58.95-.58.69,0,1.06.53,1.06,1.48v2.7h-.9v-2.6c0-.42-.11-.8-.48-.8-.21,0-.42.16-.53.48v2.92h-.95v-2.97ZM30.44,38.16v1.06h.8v.64h-.8v2.12c0,.53.16.64.42.64h.26v.69c-.11.05-.32.05-.58.05s-.53-.05-.74-.27c-.16-.16-.27-.48-.27-1.11v-2.12h-.53v-.64h.53v-.74l.9-.32ZM35.16,42.14v1.17h-.74l-.05-.42h-.05c-.16.27-.48.53-.9.53-.74,0-1.06-.58-1.06-1.64v-2.55h.9v2.44c0,.58.11.95.48.95.27,0,.42-.21.48-.37,0-.11.05-.21.05-.37v-2.65h.9v2.92ZM36.43,40.33c0-.42,0-.8-.05-1.17h.8l.05.53c.21-.32.53-.58,1.01-.58.42,0,.69.21.85.58.11-.16.27-.32.42-.42.16-.11.37-.16.58-.16.64,0,1.01.53,1.01,1.54v2.65h-.85v-2.49c0-.48-.11-.95-.48-.95-.26,0-.42.21-.53.53v2.92h-.9v-2.65c0-.32-.05-.8-.48-.8-.21,0-.42.21-.48.53-.05.11-.05.21-.05.32v2.6h-.9v-2.97ZM64,42.4c0,.32,0,.64.05.9h-.85l-.05-.42c-.21.32-.53.53-.85.53-.64,0-1.06-.53-1.06-1.22,0-1.06.9-1.54,1.8-1.54v-.11c0-.42-.16-.74-.58-.74-.32,0-.53.11-.8.26l-.16-.64c.21-.16.64-.32,1.11-.32,1.11,0,1.38.74,1.38,1.64v1.64ZM63.1,41.23c-.37,0-1.01.11-1.01.85,0,.48.26.64.48.64s.42-.16.48-.48c.05-.05.05-.16.05-.21v-.8ZM71.75,42.14v1.17h-.8l-.05-.42c-.16.27-.48.53-.9.53-.8,0-1.06-.58-1.06-1.64v-2.55h.9v2.44c0,.58.11.95.48.95.27,0,.42-.21.48-.37v-3.02h.95v2.92ZM73.02,40.33c0-.42-.05-.8-.05-1.17h.8l.05.53c.21-.32.53-.58.95-.58s.74.21.9.58c.11-.16.27-.32.42-.42.16-.11.37-.16.58-.16.64,0,1.01.53,1.01,1.54v2.65h-.9v-2.49c0-.48-.05-.95-.42-.95-.27,0-.42.21-.53.53v2.92h-.9v-2.65c0-.32-.05-.8-.48-.8-.21,0-.42.21-.53.53v2.92h-.9v-2.97ZM61.46,18.7h-.9l-.27-.85-.27.85h-.9l.74.48-.27.85.69-.53.74.53-.32-.85.74-.48ZM59.13,20.98h-.85l-.32-.8-.26.8h-.85l.69.53-.27.85.69-.53.74.53-.26-.85.69-.53ZM58.28,24.16h-.9l-.27-.85-.26.85h-.85l.69.48-.27.85.69-.53.74.53-.27-.85.69-.48ZM59.13,27.29h-.9l-.27-.85-.26.85h-.85l.69.53-.27.85.69-.53.74.53-.26-.85.69-.53ZM61.46,29.62h-.9l-.27-.85-.27.85h-.9l.74.53-.27.8.69-.48.74.48-.32-.8.74-.53ZM67.72,18.7h-.85l-.27-.85-.27.85h-.9l.74.48-.32.85.74-.53.69.53-.26-.85.69-.48ZM70.05,20.98h-.9l-.27-.8-.27.8h-.85l.69.53-.27.85.69-.53.74.53-.27-.85.69-.53ZM70.9,24.16h-.85l-.27-.85-.32.85h-.85l.69.48-.27.85.74-.53.69.53-.27-.85.69-.48ZM70.05,27.29h-.85l-.27-.85-.27.85h-.9l.69.53-.27.85.74-.53.69.53-.27-.85.69-.53ZM67.72,29.62h-.85l-.27-.85-.27.85h-.9l.74.53-.32.8.74-.48.69.48-.26-.8.69-.53ZM64.59,30.47h-.85l-.32-.85-.27.85h-.85l.69.53-.27.85.69-.53.74.53-.27-.85.69-.53ZM64.59,17.85h-.85l-.32-.85-.27.85h-.85l.69.48-.27.85.69-.53.74.53-.27-.85.69-.48ZM77.63,14.93h-28.37v18.93h28.37V14.93ZM53.77,11.17v-1.59c-.58-.48-2.86-1.43-4.24-1.75v1.11c1.59.37,3.55,1.54,4.24,2.23ZM54.94,13.5h1.33c.05-1.96-1.54-3.18-1.75-3.39v1.91c.48.85.42,1.48.42,1.48ZM58.28,9.52v1.7c.69.69,1.11,1.27,1.43,2.28h1.43c-.37-1.54-1.33-2.81-2.86-3.98ZM57.43,10.48v-1.54c-1.33-.85-3.92-2.01-6.52-2.55v1.06c2.49.64,5.14,1.91,6.52,3.02ZM61.09,9.52v-1.54c-1.59-.95-4.83-2.33-8.64-3.18v1.11c3.66.9,6.47,2.17,8.64,3.61ZM62.09,8.68v1.59c1.01.8,1.96,1.86,2.65,3.23h1.48c-.53-1.7-2.44-3.82-4.14-4.83ZM65.17,8.57v-1.48c-2.97-1.8-7.48-3.34-11.08-3.98v1.06c4.03.85,8.86,2.81,11.08,4.4ZM70.05,13.5h1.59c-1.17-2.7-3.98-4.93-5.36-5.78v1.64c2.02,1.48,2.81,2.55,3.76,4.14ZM69.2,7.62v-1.59c-2.44-1.48-7.37-3.71-13.36-4.88v1.17c4.56.95,10.39,3.23,13.36,5.3ZM75.19,13.5h1.75c-1.91-3.29-4.14-5.14-6.52-6.68v1.64c1.8,1.22,3.66,3.08,4.77,5.04ZM48.41,8.62v-1.06c-1.59-.27-4.35-.48-5.51-.32v.85c1.8-.11,4.45.21,5.51.53ZM41.68,8.15v-.8c-2.92.32-4.88,1.33-6.05,2.17v.64c1.64-1.33,3.92-1.86,6.05-2.02ZM34.94,10.9v-.8c-2.65,3.02.69,5.51,1.06,5.78v-1.06c-1.91-1.38-1.7-3.13-1.06-3.92ZM37.01,15.46v1.11c1.8,1.01,3.61,1.64,6.2,2.12v-1.48c-1.8-.11-4.19-.64-6.2-1.75ZM44.07,17.21v1.59c1.54.11,2.97.16,3.76.16v-1.75c-1.17.05-3.29.11-3.76,0ZM49.79,7.19v-1.06c-1.86-.37-5.51-.64-7.64-.42v.8c2.81-.11,5.62.27,7.64.69ZM42.26,21.67v-1.64c-2.81-.27-7.05-1.22-9.7-3.18v1.11c2.92,2.17,7.48,3.39,9.7,3.71ZM31.55,17.11v-1.06c-2.39-2.28-1.91-4.51-.37-5.99v-.69c-2.92,2.65-1.86,5.83.37,7.74ZM43.22,20.08v1.75c1.7.21,3.18.32,4.61.32v-1.91c-1.59,0-3.92-.05-4.61-.16ZM31.92,8.73v.64c2.55-1.91,6.36-2.65,9.01-2.81v-.74c-3.29.21-7.11,1.43-9.01,2.92ZM27.84,18.11v1.22c3.61,3.23,9.6,5.04,13.2,5.67v-1.86c-3.34-.37-9.33-1.64-13.2-5.04ZM51.33,5.65v-1.06c-2.33-.42-6.42-.9-10.18-.53v.85c3.18-.27,7.69.16,10.18.74ZM42.1,23.26v1.91c1.59.32,4.24.48,5.73.53v-2.12c-.9,0-4.67-.21-5.73-.32ZM39.93,4.96v-.8c-2.86.21-7.9,1.22-11.24,3.5v.64c3.23-2.17,8.33-3.18,11.24-3.34ZM27.79,8.99v-.69c-1.54,1.17-5.3,5.09-.95,10.02v-1.22c-.95-1.06-3.29-4.56.95-8.11ZM52.97,3.96v-1.11c-2.86-.53-8.38-1.01-12.73-.58v.8c3.82-.27,9.28.16,12.73.9ZM40.94,26.55v2.02c2.12.42,4.83.69,6.89.74v-2.28c-2.49-.05-4.61-.16-6.89-.48ZM39.77,28.4v-1.96c-5.99-.85-12.51-3.02-16.6-7v1.22c4.83,4.83,12.83,7.05,16.6,7.74ZM25.4,6.5v.64c3.98-2.49,9.44-3.61,13.63-3.98v-.8c-4.03.32-9.92,1.7-13.63,4.14ZM22.17,19.44v-1.27c-1.59-2.12-3.08-6.31,2.28-10.34v-.69c-6.04,4.35-4.51,9.65-2.28,12.3ZM17.98,20.29v1.38c4.56,5.94,14,9.44,19.89,10.66v-2.12c-6.15-1.06-15.54-4.08-19.89-9.92ZM54.72,2.05V.93c-2.81-.58-9.65-1.33-15.7-.69v.85c5.04-.42,11.4.11,15.7.95ZM37.81,1.2V.35c-5.2.53-11.67,2.33-15.48,4.83v.64c4.77-2.92,11.08-4.19,15.48-4.61ZM39.13,30.36v2.23c1.33.37,6.42,1.06,8.7,1.11v-2.55c-3.45-.11-6.95-.48-8.7-.8ZM21.32,6.5v-.69c-1.54,1.01-8.8,6.47-4.35,14.32v-1.59c-2.76-5.78,1.48-9.97,4.35-12.04ZM46.13,40.7h-1.33v1.8h1.54v.8h-2.44v-5.67h2.33v.74h-1.43v1.59h1.33v.74Z"/>
</svg>