<?xml version="1.0" encoding="UTF-8"?>
<svg id="Layer_1" xmlns="http://www.w3.org/2000/svg" viewBox="0 0 100 34.46">
  <defs>
    <style>
      .cls-1 {
        fill: #394c59;
      }
    </style>
  </defs>
  <path class="cls-1" d="M15.23,11.79c.88,0,1.53.24,2.1.61v-2.16c-.14.13-.22.14-.34.14-.3,0-.57-.06-.86-.13-.26-.06-.65-.12-.89-.14-3.08-.15-5.23,2-5.23,4.67s2.15,4.68,5.23,4.68c.8,0,1.55-.14,1.83-.14.13,0,.24.06.27.13v-2.22c-.47.32-1.24.55-2.1.55-1.85,0-3.29-1.29-3.29-3,0-1.89,1.44-3,3.29-3Z"/>
  <path class="cls-1" d="M22.93,12.03l1.84-1.82c-1.14,0-1.6,0-1.92.44l-.99,1.38h1.07Z"/>
  <path class="cls-1" d="M27.52,13.89v4.9c0,.16-.04.32-.12.41h2.27s-.55.03-.55-.41v-3.12c0-.76.69-1.03,1.23-1.03.15,0,.4.03.53.09v-1.64c-.68,0-1.41.19-1.75.81-.04-.36-.22-.65-.78-.65h-1.14c.21,0,.33.28.33.65Z"/>
  <path class="cls-1" d="M43.87,12.97c-2.15,0-3.55,1.58-3.55,3.22s1.4,3.22,3.55,3.22,3.55-1.58,3.55-3.22-1.4-3.22-3.55-3.22ZM43.87,17.98c-1.21,0-1.89-.92-1.89-1.8s.68-1.8,1.89-1.8,1.89.92,1.89,1.8-.68,1.8-1.89,1.8Z"/>
  <path class="cls-1" d="M63.8,18.39v-3.04c0-.58.55-.79.55-.79-.63,0-1.09-.49-1.55-.83-.48-.36-1.07-.68-2.23-.68-1.84,0-3.38,1.26-3.38,3.16,0,1.8,1.3,3.19,3.4,3.19.41,0,.83-.13,1.1-.3v-1.35c-.3.16-.64.24-1.01.24-1.14,0-1.83-.8-1.83-1.78s.69-1.78,1.83-1.78c.62,0,1.17.22,1.54.69v3.06c0,.68.31,1.01.77,1.01h1.52c-.25,0-.7-.36-.7-.8Z"/>
  <path class="cls-1" d="M55.79,16.23c0-1.89-1.26-3.2-3.09-3.2-.87,0-1.28.29-1.98.69v-3.95c0-.44.1-.53.35-.82-.96.32-1.94.45-1.94,2.12v6.67c0,.44-.14.56-.28.72.98,0,1.89.94,3.51.94,1.75,0,3.44-1.04,3.44-3.18ZM50.71,17.27v-2.21c.43-.38.84-.63,1.46-.63,1.11,0,1.97.63,1.97,1.78s-.87,1.78-1.97,1.78c-.62,0-1.11-.24-1.46-.73Z"/>
  <path class="cls-1" d="M21.94,12.97c-2.15,0-3.55,1.58-3.55,3.22s1.4,3.22,3.55,3.22,3.55-1.58,3.55-3.22-1.4-3.22-3.55-3.22ZM21.94,17.98c-1.21,0-1.89-.92-1.89-1.8s.68-1.8,1.89-1.8,1.89.92,1.89,1.8-.68,1.8-1.89,1.8Z"/>
  <path class="cls-1" d="M38.89,18.46c-.14-.15-.28-.28-.28-.72v-6.67c0-1.67-.98-1.8-1.94-2.12.25.29.35.39.35.82v3.95c-.7-.41-1.11-.69-1.98-.69-1.83,0-3.09,1.32-3.09,3.2,0,2.13,1.69,3.18,3.44,3.18,1.62,0,2.53-.94,3.51-.94ZM33.59,16.22c0-1.16.86-1.78,1.97-1.78.62,0,1.03.25,1.46.63v2.21c-.35.49-.84.73-1.46.73-1.11,0-1.97-.61-1.97-1.78Z"/>
  <path class="cls-1" d="M27.47,24.38c.27,2.18,1.07,4.55,2.85,5.85,0,0,.39-.2.64-.3.43-.17.85-.13,1.07.05l-3.2-7.22c-.34.54-.8,1.09-1.36,1.62Z"/>
  <path class="cls-1" d="M23.34,27.1c-.43.44-.83.85-1.19,1.24,1.98.23,3.95.73,5.53,1.84-.92-1.24-1.46-2.81-1.78-4.52-.76.53-1.62,1.02-2.55,1.44Z"/>
  <path class="cls-1" d="M5.75,22.73c2.06,1.7,3.91,3.63,5.38,5.08.13.13.27.26.4.4,1.39-.1,2.78-.12,4.09-.11-3.43-.66-6.39-2.81-7.87-6.15-1.5-3.39-1.23-6.59.33-9.18-.69.64-1.35,1.24-1.94,1.79-.14.13-.28.26-.42.38.2,2.59.09,5.21.05,7.23,0,.18,0,.37-.01.56Z"/>
  <path class="cls-1" d="M14.61,7.66c.98-.37,1.92-.6,2.82-.74-1-1.33-1.79-2.8-2.05-4.39-.29,1.74-1.25,3.47-2.5,5.12.58.01,1.16.01,1.73,0Z"/>
  <path class="cls-1" d="M21.87,7.05l-3.12-7.05c-.27.61-.5.74-.92.92-.21.08-.41.16-.62.22-.08,1.81,1.03,3.79,2.55,5.66.71.03,1.41.12,2.11.25Z"/>
  <path class="cls-1" d="M13.56,1.88c-.67.15-1.35.33-1.82.49-2.62.91-4.83,2.24-6.59,3.85,1.46.76,3.39,1.14,5.42,1.31,1.45-1.61,2.86-3.57,3-5.65Z"/>
  <path class="cls-1" d="M8.95,9.24c-1.84-.21-3.66-.66-5.17-1.61l-.1.11c.93,1.38,1.47,3.12,1.77,4.98,1.32-1.21,2.52-2.47,3.5-3.48Z"/>
  <path class="cls-1" d="M2.49,9.33C1.06,11.52.22,13.99.02,16.56c1.24-.54,2.49-1.38,3.7-2.35-.13-1.65-.43-3.43-1.23-4.88Z"/>
  <path class="cls-1" d="M0,18.61c.01.23.03.46.05.69,1.32.44,2.62,1.16,3.88,2.04.04-1.75-.04-3.45-.1-4.83-1.17.88-2.45,1.65-3.83,2.1Z"/>
  <path class="cls-1" d="M1.44,24.52c.46,1.03,1,1.99,1.61,2.88.4-1.15.63-2.47.76-3.83-1.03-.85-2.19-1.68-3.43-2.23.24,1.07.59,2.13,1.06,3.18Z"/>
  <path class="cls-1" d="M5.58,25.11c-.17,1.4-.51,2.79-1.13,4.03.16.18.33.35.5.52,1.26-.59,2.72-.97,4.26-1.2-1.26-1.26-2.57-2.42-3.63-3.35Z"/>
  <path class="cls-1" d="M6.43,30.97c2.02,1.57,4.4,2.64,6.99,3.16-.54-1.34-1.52-2.7-2.65-4-1.44.1-2.99.32-4.34.85Z"/>
  <path class="cls-1" d="M13.16,30.01c1.09,1.33,2.01,2.8,2.41,4.4l.26.02c.39-1.53,1.27-3.06,2.37-4.51-1.83-.04-3.6.04-5.04.09Z"/>
  <path class="cls-1" d="M17.76,34.46c2.41-.09,4.92-.63,7.45-1.66.61-.25,1.2-.52,1.76-.79-1.49-1.22-3.89-1.76-6.44-1.97-1.16,1.29-2.29,2.8-2.77,4.42Z"/>
  <path class="cls-1" d="M12.01,21.75c.27,0,.41.08.63.22v-.79l-.15.06c-.09,0-.15,0-.22-.02-.87-.2-1.72.36-1.72,1.27,0,.75.61,1.31,1.46,1.31.29,0,.45-.06.62-.03v-.75c-.2.14-.36.21-.62.21-.46,0-.82-.32-.82-.74,0-.46.35-.74.82-.74Z"/>
  <path class="cls-1" d="M13.39,21.38v2.33h.72s-.06-.04-.06-.15v-2.33s-.72,0-.72,0c0,0,.06.03.06.15Z"/>
  <path class="cls-1" d="M17.22,23.25s-.06-.05-.06-.16v-1.85s-.72,0-.72,0c0,0,.06.04.06.15v1.43c0,.5-1.03.6-1.07,0v-1.58s-.72,0-.72,0c0,0,.06.03.06.15v1.36c-.02.56.43,1.06,1.08,1.06.61,0,1.11-.5,1.36-.56Z"/>
  <path class="cls-1" d="M14.08,20.51c0-.19-.16-.35-.36-.35s-.36.16-.36.35.16.35.36.35.36-.16.36-.35Z"/>
  <path class="cls-1" d="M19.05,21.18c-.74,0-1.26.53-1.26,1.3,0,.87.69,1.29,1.4,1.29.66,0,1.03-.38,1.43-.38-.06-.06-.11-.11-.11-.29v-2.71c0-.68-.4-.74-.79-.86.1.12.14.15.14.33v1.6c-.29-.16-.45-.28-.81-.28ZM19.85,22.91c-.14.2-.34.3-.59.3-.45,0-.8-.25-.8-.72s.35-.72.8-.72c.25,0,.42.1.59.26v.9Z"/>
  <path class="cls-1" d="M23.58,23.73h.62c-.1,0-.28-.15-.28-.33v-1.24c0-.24.22-.32.22-.32-.26,0-.45-.2-.63-.34-.19-.15-.43-.28-.91-.28-.75,0-1.38.51-1.38,1.29,0,.73.53,1.3,1.38,1.3.17,0,.34-.05.45-.12v-.55c-.12.07-.26.1-.41.1-.46,0-.75-.33-.75-.73s.28-.72.75-.72c.25,0,.47.09.63.28v1.24c0,.28.12.41.32.41Z"/>
  <path class="cls-1" d="M25.76,21.18c-.74,0-1.26.53-1.26,1.3,0,.87.69,1.29,1.4,1.29.66,0,1.03-.38,1.43-.38-.06-.06-.11-.11-.11-.29v-2.71c0-.68-.4-.74-.79-.86.1.12.14.15.14.33v1.6c-.29-.16-.45-.28-.81-.28ZM26.56,22.91c-.14.2-.34.3-.59.3-.45,0-.8-.25-.8-.72s.35-.72.8-.72c.25,0,.42.1.59.26v.9Z"/>
  <path class="cls-1" d="M32.51,20.39c0-.68-.4-.74-.79-.86.1.12.14.15.14.33v1.6c-.29-.16-.45-.28-.81-.28-.74,0-1.26.53-1.26,1.3,0,.87.69,1.29,1.4,1.29.66,0,1.03-.38,1.43-.38-.06-.06-.11-.11-.11-.29v-2.71ZM31.86,22.91c-.14.2-.34.3-.59.3-.45,0-.8-.25-.8-.72s.35-.72.8-.72c.25,0,.42.1.59.26v.9Z"/>
  <path class="cls-1" d="M34.85,21.17c-.81,0-1.44.5-1.44,1.31,0,.75.61,1.31,1.46,1.31.29,0,.45-.06.62-.03v-.75c-.2.14-.36.21-.62.21-.39,0-.7-.23-.79-.54h2.21v-.19c0-.81-.62-1.32-1.44-1.32ZM34.08,22.28c.09-.33.39-.53.77-.54.38,0,.68.2.77.54h-1.54Z"/>
  <path class="cls-1" d="M40.15,21.17c-.81,0-1.44.5-1.44,1.31,0,.75.61,1.31,1.46,1.31.29,0,.45-.06.62-.03v-.75c-.2.14-.36.21-.62.21-.39,0-.7-.23-.79-.54h2.21v-.19c0-.81-.62-1.32-1.44-1.32ZM39.38,22.28c.09-.33.39-.53.77-.54.38,0,.68.2.77.54h-1.54Z"/>
  <path class="cls-1" d="M44.39,22.2c.02-.56-.42-1.06-1.08-1.06-.61,0-1.11.5-1.36.56,0,0,.05.06.05.16v1.85s.72,0,.72,0c0,0-.06-.03-.06-.15v-1.43c0-.49,1.03-.6,1.07,0v1.58s.72,0,.72,0c0,0-.06-.03-.06-.15v-1.36Z"/>
  <path class="cls-1" d="M46.58,21.2c-.87-.2-1.72.37-1.72,1.27,0,.75.61,1.31,1.46,1.31.29,0,.45-.06.62-.03v-.74c-.2.14-.36.21-.62.21-.46,0-.82-.32-.82-.74,0-.46.35-.74.82-.74.27,0,.41.08.63.22v-.79l-.15.06c-.09,0-.15,0-.22-.02Z"/>
  <path class="cls-1" d="M50.09,21.23h-.72s.06.04.06.15v1.43c0,.5-1.03.6-1.07,0v-1.58s-.72,0-.72,0c0,0,.06.03.06.15v1.36c-.02.56.43,1.06,1.08,1.06.61,0,1.11-.5,1.36-.56,0,0-.06-.05-.06-.16v-1.85Z"/>
  <path class="cls-1" d="M52.22,21.17c-.81,0-1.44.5-1.44,1.31,0,.75.61,1.31,1.46,1.31.29,0,.45-.06.62-.03v-.75c-.2.14-.36.21-.62.21-.39,0-.7-.23-.79-.54h2.21v-.19c0-.81-.62-1.32-1.44-1.32ZM51.45,22.28c.09-.33.39-.53.77-.54.38,0,.68.2.77.54h-1.54Z"/>
  <path class="cls-1" d="M56.68,22.2c.02-.56-.42-1.06-1.08-1.06-.61,0-1.12.5-1.36.56,0,0,.06.06.06.16v1.85h.72s-.06-.04-.06-.15v-1.43c0-.49,1.03-.6,1.07,0v1.58s.72,0,.72,0c0,0-.06-.03-.06-.15v-1.36Z"/>
  <path class="cls-1" d="M60.47,21.52c-.01-.15-.09-.27-.32-.27h-.47c.09,0,.13.11.13.27v2.02l-.05.17h.94s-.23.01-.23-.17v-1.29c0-.31.28-.42.51-.42l.22.04v-.68c-.28,0-.58.08-.73.33Z"/>
  <path class="cls-1" d="M58.35,20.65l-.97,1.08h.32v1.97h.72s-.06-.04-.06-.15v-1.82s.61,0,.61,0c.1,0,.13.05.13.05v-.56h-.74v-.58Z"/>
  <path class="cls-1" d="M62.99,21.16c-.87,0-1.44.64-1.44,1.3s.56,1.3,1.44,1.3,1.43-.64,1.43-1.3-.56-1.3-1.43-1.3ZM62.99,23.18c-.49,0-.76-.37-.76-.73s.27-.73.76-.73.76.37.76.73-.27.73-.76.73Z"/>
  <path class="cls-1" d="M73.88,20.85c-.09-.14-.2-.25-.34-.33-.13-.08-.28-.12-.44-.12-.22,0-.42.06-.6.19-.18.12-.32.32-.43.58-.11.26-.16.58-.16.96,0,.55.12.97.36,1.28.24.3.53.45.87.45.16,0,.31-.04.44-.12.14-.09.25-.21.34-.37v.42h.45v-4.56h-.48v1.64ZM73.7,23.09c-.15.2-.33.3-.53.3s-.39-.11-.54-.31c-.15-.21-.23-.52-.23-.95s.07-.76.22-.96c.14-.21.32-.31.52-.31.23,0,.42.11.57.32.15.21.22.55.22,1.01,0,.4-.07.7-.22.9Z"/>
  <path class="cls-1" d="M76.41,20.39c-.38,0-.7.15-.95.45-.25.3-.37.73-.37,1.31s.12.97.37,1.26c.25.29.57.44.97.44.32,0,.59-.09.8-.27.22-.18.37-.45.45-.8l-.49-.07c-.14.45-.39.68-.75.68-.23,0-.42-.1-.58-.28-.16-.19-.25-.47-.27-.84h2.11v-.15c0-.56-.12-.99-.36-1.28-.24-.29-.55-.44-.92-.44ZM75.61,21.8c.02-.29.1-.52.25-.69.15-.17.33-.26.55-.26.24,0,.43.1.59.31.11.14.17.35.19.64h-1.58Z"/>
  <polygon class="cls-1" points="79.85 19.75 81.14 19.75 81.14 23.77 81.65 23.77 81.65 19.75 82.94 19.75 82.94 19.21 79.85 19.21 79.85 19.75"/>
  <path class="cls-1" d="M85.33,22.24c0,.41-.06.7-.19.86-.15.18-.34.27-.57.27-.12,0-.23-.03-.33-.1-.09-.07-.16-.16-.2-.28-.03-.12-.05-.35-.05-.69v-1.83h-.48v2.05c0,.3.03.55.08.72.05.18.16.32.32.44.16.11.35.17.57.17.19,0,.36-.05.51-.14.15-.09.28-.23.39-.42v.49h.43v-3.31h-.48v1.77Z"/>
  <path class="cls-1" d="M87.43,20.51c-.09.08-.19.23-.3.46v-.5h-.43v3.31h.48v-1.73c0-.24.03-.47.09-.68.04-.12.09-.22.18-.29.08-.07.18-.1.28-.1.11,0,.23.04.35.12l.16-.52c-.17-.12-.33-.18-.49-.18-.12,0-.22.04-.31.12Z"/>
  <rect class="cls-1" x="88.65" y="20.47" width=".48" height="3.31"/>
  <rect class="cls-1" x="88.65" y="19.21" width=".48" height=".64"/>
  <path class="cls-1" d="M91.79,22.06c-.12-.07-.37-.17-.77-.29-.29-.09-.46-.16-.52-.2-.1-.07-.14-.17-.14-.29s.05-.23.15-.31c.1-.08.26-.12.46-.12.37,0,.57.18.61.54l.47-.07c-.03-.23-.09-.4-.18-.53-.08-.12-.21-.22-.37-.29-.16-.07-.34-.11-.55-.11-.33,0-.59.09-.78.26-.19.18-.28.4-.28.69,0,.16.03.31.1.44.07.13.17.23.29.31.13.08.37.17.75.28.26.07.42.14.49.19.1.07.15.17.15.31,0,.15-.06.28-.17.38-.11.1-.27.15-.48.15s-.37-.06-.5-.17c-.12-.11-.2-.29-.23-.52l-.47.09c.11.71.5,1.07,1.18,1.07.36,0,.65-.1.85-.29.21-.2.32-.45.32-.76,0-.17-.03-.32-.1-.44-.06-.13-.16-.22-.27-.29Z"/>
  <path class="cls-1" d="M95.82,20.39c-.18,0-.34.05-.49.15-.14.1-.27.24-.39.43-.06-.19-.16-.33-.29-.43-.14-.1-.3-.15-.5-.15-.18,0-.34.05-.49.14-.15.09-.27.23-.37.4v-.46h-.43v3.31h.48v-1.72c0-.45.06-.76.19-.92.13-.17.3-.25.52-.25.15,0,.27.06.36.17.09.11.13.3.13.58v2.15h.48v-1.92c0-.34.06-.58.2-.74.13-.16.3-.24.5-.24.1,0,.19.03.27.08.08.05.14.13.17.23.04.1.06.26.06.5v2.08h.48v-2.27c0-.39-.08-.67-.23-.85-.16-.18-.37-.26-.64-.26Z"/>
  <path class="cls-1" d="M99.62,20.83c-.25-.29-.57-.44-.94-.44s-.7.15-.95.44c-.25.29-.37.72-.37,1.29s.13,1,.38,1.29c.25.29.57.44.95.44s.7-.15.95-.44c.25-.29.37-.73.37-1.33,0-.55-.13-.97-.38-1.26ZM99.27,23.07c-.16.21-.35.32-.58.32-.24,0-.44-.11-.61-.31-.16-.21-.24-.53-.24-.96s.08-.74.24-.95c.16-.21.36-.31.58-.31.24,0,.44.11.6.31.16.21.24.52.24.95s-.08.74-.24.95Z"/>
  <path class="cls-1" d="M74.92,16.19c-.07.39-.21.68-.41.88-.2.19-.45.29-.73.29-.38,0-.69-.16-.92-.47-.23-.31-.34-.78-.34-1.41,0-.41.05-.75.17-1.02.11-.27.27-.47.46-.59.19-.13.42-.19.68-.19.52,0,.87.32,1.04.95l.51-.14c-.11-.44-.3-.77-.57-.99-.27-.23-.59-.34-.97-.34-.34,0-.66.09-.94.27-.28.18-.5.44-.66.79-.16.35-.24.77-.24,1.27s.08.95.24,1.32c.16.38.37.65.63.82.26.17.57.25.93.25.41,0,.76-.12,1.05-.38.29-.25.49-.64.6-1.15l-.52-.15Z"/>
  <path class="cls-1" d="M77.3,14.41c-.38,0-.7.15-.95.44-.25.29-.37.72-.37,1.29s.13,1,.38,1.29c.25.29.57.43.95.43s.7-.14.95-.43c.25-.29.37-.73.37-1.33,0-.55-.13-.97-.38-1.26-.25-.29-.57-.44-.95-.44ZM77.89,17.09c-.16.21-.35.31-.58.31-.24,0-.44-.1-.61-.31-.16-.21-.24-.53-.24-.96s.08-.74.24-.95c.16-.21.35-.31.58-.31.24,0,.44.11.61.31.16.21.24.53.24.95s-.08.74-.24.95Z"/>
  <path class="cls-1" d="M80.55,14.9c.12,0,.23.03.32.09.09.06.16.15.21.26.04.11.07.29.07.53v2.01h.48v-2.03c0-.31-.02-.53-.06-.68-.04-.15-.1-.27-.18-.36-.08-.09-.18-.17-.31-.22-.13-.06-.27-.09-.42-.09-.2,0-.37.05-.52.14-.15.09-.28.23-.38.41v-.47h-.43v3.31h.48v-1.81c0-.4.07-.68.21-.84.14-.16.32-.25.55-.25Z"/>
  <path class="cls-1" d="M84.65,16.81c0-.17-.03-.32-.1-.44-.06-.12-.16-.22-.27-.29-.12-.07-.37-.17-.77-.29-.29-.09-.46-.16-.52-.2-.1-.07-.15-.17-.15-.29s.05-.23.15-.31c.1-.08.26-.12.46-.12.37,0,.57.18.61.54l.47-.07c-.03-.23-.09-.4-.18-.53-.08-.12-.21-.22-.37-.29-.16-.07-.34-.11-.55-.11-.33,0-.59.09-.78.26-.19.18-.28.41-.28.69,0,.16.03.31.1.44.07.13.17.23.29.31.13.08.37.17.75.28.26.07.42.14.49.19.1.07.15.17.15.31,0,.15-.06.28-.17.38-.11.1-.27.15-.48.15s-.37-.05-.5-.17c-.13-.12-.2-.29-.23-.52l-.48.09c.11.71.5,1.07,1.18,1.07.36,0,.65-.1.85-.29.21-.2.32-.45.32-.77Z"/>
  <path class="cls-1" d="M87.82,16.11c0-.55-.13-.97-.38-1.26-.25-.29-.57-.44-.94-.44s-.7.15-.95.44c-.25.29-.37.72-.37,1.29s.12,1,.38,1.29c.25.29.57.43.95.43s.7-.14.95-.43c.25-.29.37-.73.37-1.33ZM87.08,17.09c-.16.21-.35.31-.58.31-.24,0-.44-.1-.6-.31-.16-.21-.24-.53-.24-.96s.08-.74.24-.95c.16-.21.35-.31.58-.31.24,0,.44.11.6.31.16.21.24.53.24.95s-.08.74-.24.95Z"/>
  <path class="cls-1" d="M90.05,14.59c-.17-.12-.33-.18-.49-.18-.11,0-.22.04-.31.12-.09.07-.19.23-.3.46v-.5h-.43v3.31h.48v-1.73c0-.24.03-.47.09-.68.03-.12.09-.22.18-.29.09-.07.18-.1.28-.1.11,0,.23.04.35.12l.16-.52Z"/>
  <path class="cls-1" d="M92.07,17.21c-.13.13-.28.2-.46.2-.23,0-.42-.1-.57-.3-.15-.2-.22-.53-.22-.98s.08-.75.23-.95c.16-.2.35-.3.59-.3.16,0,.29.05.41.17.11.11.19.28.24.5l.46-.09c-.06-.35-.19-.61-.39-.78-.2-.18-.45-.26-.74-.26-.38,0-.69.14-.93.43-.24.29-.36.72-.36,1.29s.12,1,.36,1.3c.24.29.55.43.92.43.31,0,.57-.1.78-.31.22-.21.36-.51.41-.9l-.47-.07c-.03.28-.12.49-.25.63Z"/>
  <rect class="cls-1" x="93.32" y="14.49" width=".48" height="3.31"/>
  <rect class="cls-1" x="93.32" y="13.23" width=".48" height=".64"/>
  <path class="cls-1" d="M95.82,14.41c-.38,0-.7.15-.95.44-.25.29-.37.72-.37,1.29s.13,1,.38,1.29c.25.29.57.43.95.43s.7-.14.95-.43c.25-.29.37-.73.37-1.33,0-.55-.13-.97-.38-1.26-.25-.29-.57-.44-.95-.44ZM96.41,17.09c-.16.21-.35.31-.58.31-.24,0-.44-.1-.6-.31-.16-.21-.24-.53-.24-.96s.08-.74.24-.95c.16-.21.35-.31.58-.31.24,0,.44.11.6.31.16.21.24.53.24.95s-.08.74-.24.95Z"/>
  <rect class="cls-1" x="68.36" y="13.2" width=".46" height="10.51"/>
</svg>