<?xml version="1.0" encoding="UTF-8"?>
<svg id="Layer_1" xmlns="http://www.w3.org/2000/svg" viewBox="0 0 100.98 27.47">
  <defs>
    <style>
      .cls-1 {
        fill: #394c59;
      }
    </style>
  </defs>
  <path class="cls-1" d="M96.46,25.85c-.4,0-.62.05-.73.12-.17.1-.24.24-.24.38,0,.24.2.42.47.4.24,0,.44-.14.5-.21v-.69ZM90.64,26.38v-3.62l.93-.31v3.82c0,.35.14.49.42.61l.05.45s-.67.11-.98-.06c-.34-.19-.42-.38-.42-.9ZM92.7,26.38v-3.62l.93-.31v3.82c0,.35.14.49.42.61l.05.45s-.67.11-.98-.06c-.34-.19-.42-.38-.42-.9ZM80.16,23.91l.33-.65s-.65-.48-1.52-.46c-.63.01-1.45.4-1.45,1.25s.67,1.15,1.23,1.33c.55.18.91.29.87.65-.04.36-.46.47-.95.37-.35-.07-.91-.41-.91-.41l-.43.74s.67.62,1.64.62c.85,0,1.72-.48,1.72-1.49s-.82-1.2-1.64-1.45c-.38-.11-.39-.45-.29-.63.15-.25.5-.31,1.4.13ZM88.79,27.18v-2.96s.18-.02.44-.09c.26-.07.44-.17.44-.17v3.22h-.87ZM89.74,23.01c0,.31-.25.56-.56.56s-.56-.25-.56-.56.25-.56.56-.56.56.25.56.56ZM83.43,24.91c-.08-.2-.26-.34-.52-.34s-.43.15-.52.34c-.05.12-.06.21-.07.35h1.18c0-.14-.02-.23-.07-.35ZM82.37,25.87c0,.44.18.76.63.76.35,0,.53-.1.73-.32l.49.51c-.33.35-.64.54-1.22.54-.76,0-1.49-.37-1.49-1.75,0-1.11.57-1.74,1.4-1.74.9,0,1.4.69,1.4,1.63v.38h-1.94ZM86.79,27.24h-.68l-1.28-3.31h.92l.71,2.05.7-2.05h.92l-1.28,3.31ZM18.07,16.41c-.89-.02-1.35.11-1.61.26-.37.22-.53.52-.53.83,0,.52.43.91,1.04.88.53-.02.96-.32,1.09-.45v-1.52ZM19.72,19.97l-1.19-.82s-.97.74-2.11.75c-1.67.02-2.6-.87-2.59-2.29.02-2.55,3.14-2.62,4.24-2.61,0,0,.12-.55-.08-.96-.12-.26-.39-.43-.82-.45-.71-.03-1.74.48-2.37.88l-.69-1.46s1.68-1.05,3.42-1.03c1.2.02,1.68.34,1.9.51.6.47.67.75.67,1.98,0,0-.06,3.36-.06,3.56,0,.19.71.8.71.8l-1.03,1.13ZM69.51,16.41c-.89-.02-1.35.11-1.61.26-.37.22-.53.52-.53.83,0,.52.43.91,1.04.88.53-.02.96-.32,1.09-.45v-1.52ZM71.16,19.97l-1.19-.82s-.98.74-2.11.75c-1.67.02-2.6-.87-2.59-2.29.02-2.55,3.14-2.62,4.24-2.61,0,0,.12-.55-.08-.96-.12-.26-.39-.43-.83-.45-.71-.03-1.74.48-2.37.88l-.69-1.46s1.67-1.05,3.41-1.03c1.2.02,1.68.34,1.9.51.6.47.67.75.67,1.98,0,0-.06,3.36-.06,3.56,0,.19.72.8.72.8l-1.03,1.13ZM94.97,16.36c-.89-.02-1.35.11-1.61.26-.37.22-.53.52-.53.83,0,.52.43.91,1.04.89.53-.02.96-.32,1.09-.45v-1.52ZM96.62,19.91l-1.19-.82s-.98.74-2.11.75c-1.67.02-2.6-.87-2.59-2.29.02-2.55,3.14-2.63,4.24-2.62,0,0,.12-.55-.08-.96-.12-.26-.39-.43-.82-.45-.71-.03-1.74.48-2.37.88l-.69-1.47s1.67-1.05,3.41-1.03c1.2.02,1.68.34,1.9.51.6.47.67.75.67,1.98,0,0-.06,3.36-.06,3.56,0,.19.72.8.72.8l-1.03,1.13ZM10.36,17.58V7.48l2.07-.69v10.55c0,.79.3,1.1.93,1.38l.12,1s-1.51.24-2.19-.13c-.76-.42-.94-.85-.94-2ZM8.36,13.86l.63-1.15s-1.25-.85-2.94-.81c-1.21.03-2.81.7-2.81,2.2s1.3,2.02,2.37,2.35c1.06.32,1.76.52,1.69,1.16-.07.64-.89.82-1.84.65-.68-.13-1.76-.71-1.76-.71l-.83,1.31s1.3,1.09,3.18,1.09c1.65,0,3.32-.85,3.32-2.63s-1.58-2.12-3.16-2.56c-.73-.2-.76-.8-.57-1.11.28-.44.96-.55,2.71.23ZM53.15,9.15h2.92l1.91,6.47,2.34-10.16h2.97l1.27,13.89-2.95.28-.49-7.02-2.28,7.02h-1.87l-1.82-6.61-.52,8.19-2.8-.28,1.31-11.77ZM66.79,9.39l.71,1.08,3.36-1.4-.89-1.51-3.19,1.83ZM81.17,19.41v-7.02s.43-.05,1.04-.22c.62-.17,1.03-.4,1.03-.4v7.64h-2.07ZM83.86,8.64c0,.93-.75,1.68-1.68,1.68s-1.67-.75-1.67-1.68.75-1.67,1.67-1.67,1.68.75,1.68,1.67ZM0,19.41v-10.75s.43-.05,1.04-.22c.62-.17,1.03-.4,1.03-.4v11.37H0ZM89.21,17.5c-.26.26-.7.71-1.32.71-.97,0-1.5-.91-1.5-2.44s.64-2.39,1.39-2.42c.67-.02,1.22.58,1.22.58l.99-1.15c-.63-.57-1.4-1-2.25-.98-1.1.03-1.93.41-2.57,1.15-.64.74-1,1.79-1,2.99s.37,2.17.95,2.85c.58.69,1.66,1.08,2.66,1.03,1.35-.07,1.89-.76,2.43-1.35l-1-.95ZM75.94,15.47c-.68,0-1.22-.49-1.22-1.09s.55-1.09,1.22-1.09,1.23.49,1.23,1.09-.55,1.09-1.23,1.09ZM80.76,12.79l-.79-1.17s-.29.27-.72.47c-.58.26-1,.39-1.47.19-.52-.24-1.14-.38-1.8-.38-1.88,0-3.4,1.11-3.4,2.49,0,.89.64,1.67,1.61,2.11h-.02c-.05.03-1.28.51-1.28,1.27,0,1.13,1.65,1.18,3.29,1.22,1.64.03,1.55.64,1.55.91s-.17,1.03-1.8,1.03c-1.9,0-1.62-1.33-1.62-1.33h-1.75s-.15.14-.14.68c.02.81,1.14,2.05,3.66,2.05s3.71-1.27,3.71-2.24-.35-1.52-1.1-2.04c-.71-.49-2.36-.47-3.05-.47s-.46-.31-.31-.41c.08-.05.28-.2.46-.3.06,0,.13,0,.2,0,1.88,0,3.32-1.03,3.32-2.41,0-.4-.13-.85-.36-1.18,1.03.09,1.81-.48,1.81-.48ZM99.6,11.62c-.59,0-1.07.48-1.07,1.07s.48,1.07,1.07,1.07,1.07-.48,1.07-1.07-.48-1.07-1.07-1.07ZM99.6,14.07c-.76,0-1.38-.62-1.38-1.38s.62-1.38,1.38-1.38,1.38.62,1.38,1.38-.62,1.38-1.38,1.38ZM99.21,12.59h.35c.17,0,.26-.11.26-.24,0-.08-.03-.14-.08-.17-.04-.03-.09-.05-.17-.05h-.36v.47ZM98.97,11.92h.6c.13,0,.23.03.31.1.09.07.15.19.15.33,0,.2-.11.36-.3.42l.35.68h-.27l-.32-.65h-.3v.65h-.23v-1.53ZM43.37,13.87c-.6-.1-1.18-.17-1.68-.21.33.37.82.94,1.17,1.53.1-.48.28-.93.52-1.32ZM42.66,2.97c-.44.72-.95,1.65-1.35,2.63.35-.18.68-.38.92-.59.3-.26.63-.77.64-1.28,0-.26-.09-.52-.22-.76ZM32.44,6.22c1.35.25,2.17.72,2.74,1.15.14-2.18,2.27-5.17,6.32-5.42-.24-.1-.5-.18-.79-.23-.32-.06-.67-.08-1.03-.08-.35,0-.67.03-1.01.11-1.35.32-2.57,1.24-3.62,2.13-.97.83-1.83,1.66-2.61,2.34ZM24.76,6.89c.36-.17,1.19-.37,1.33-.48,1.59-.27,2.91-.38,4.02-.38-.03-.24-.13-.5-.27-.71-.18-.27-.47-.46-.82-.58-.36-.12-.78-.16-1.21-.12-.43.03-.89.14-1.23.32-.37.2-.75.51-1.07.86-.3.32-.55.69-.74,1.09ZM27.07,13.54c.49-.75,1.08-1.37,1.73-1.64,1.18-.49,2.06-.9,2.73-1.17-.93-.93-4.35-2.94-6.85-3.66-.37.87-.39,1.87-.09,2.88.32,1.05.86,2,1.57,2.76.28.3.59.58.91.84ZM25.54,16.77c.2-.55.46-1.23.79-1.9-.44-.31-.88-.66-1.3-1.07-.92-.9-1.62-2.08-2.02-3.39-.2-.66-.29-1.37-.25-2.07.04-.7.22-1.39.52-2,.29-.61.69-1.14,1.15-1.59.46-.45.96-.81,1.55-1.08.63-.27,1.22-.33,1.8-.33.58,0,1.14.11,1.67.35.52.23,1,.63,1.25,1.13.2.4.3.81.29,1.22.16,0,.32.02.47.03l.2-.25c.67-.84,1.44-1.88,2.45-2.96.51-.54,1.08-1.08,1.77-1.58.69-.49,1.5-.93,2.44-1.15.46-.11.96-.15,1.41-.14.45.01.89.06,1.33.17.87.2,1.74.66,2.3,1.38.56.72.77,1.59.66,2.38-.18.97-1,1.54-1.25,1.71-.5.35-1.03.51-1.48.6-.07.01-.15.03-.22.04-.13.4-.24.79-.31,1.18l.15.02c1.07.13,2.36.23,3.82.51.73.15,1.5.34,2.28.67.78.32,1.58.77,2.27,1.44.34.33.64.72.88,1.12.24.4.43.82.56,1.26.27.88.27,1.81.06,2.61-.22.81-.59,1.5-1.12,2.05-.07.07-.14.14-.22.2-.08.06-.15.11-.22.16-.15.1-.31.19-.47.26-.32.14-.64.23-.96.26-.63.07-1.18-.08-1.6-.27-.43-.19-.74-.44-.97-.65-.45-.44-.6-.76-.61-.75,0,0,.24.25.76.54.26.14.59.29.98.37.39.08.84.09,1.29-.05.22-.06.44-.17.64-.31.1-.07.2-.15.29-.24.05-.04.09-.09.14-.14.03-.04.07-.08.11-.13.3-.42.53-1,.61-1.6.09-.6.03-1.23-.2-1.83-.23-.61-.61-1.21-1.1-1.69-1.01-.98-2.43-1.52-3.74-1.94-1.33-.42-2.59-.72-3.64-1.05l-.06-.02c0,.17,0,.34.03.5.82.08,2.5.33,3.42.8,3.11,1.59,3.36,5.15,3.36,5.15,0,0-1.37-.34-2.93-.63l-.1.2c-.27.53-.38,1.19-.32,1.89.06.71.24,1.55.38,2.42.15.87.29,1.81.32,2.8.02.99-.06,2.01-.44,2.98-.19.48-.45.93-.79,1.32-.33.39-.73.7-1.15.93-.43.23-.81.38-1.22.51-.41.12-.69.21-1.11.22-.84.04-1.58,0-2.32-.8-.38-.46-.58-.89-.66-1.61,0-1.1.79-1.97.74-1.79-.36,1.67.24,2.54.66,2.82.42.29,1.75.66,3.22-.42.55-.38,1.06-.97,1.29-1.67.3-.81.33-1.59.24-2.51,0-.16-.02-.32-.03-.48-.43,1.19-1.01,1.94-1.01,1.94,0,0-.87-2.07-4.76-4.8-1.33,1.36-2.44,2.94-3.22,4.2.68-.25,1.33-.52,1.97-.78l1.19-.5.59-.24c.22-.09.45-.15.69-.19.47-.09.77-.06,1.21.12.44.17.78.49,1.01.82.45.68.45,1.42.22,2.09-.22.47-.52.72-.86.93-.55.32-1.28.33-1.65.16-.33-.1.38.02.74-.04.5-.07.72-.27.97-.51.26-.37.74-1.06,0-2.09-.37-.4-.99-.59-1.59-.39-.15.05-.3.11-.45.19l-.53.29-.94.62c-1.1.58-2.34,1.18-3.74,1.6l-.07.13s-.03-.03-.08-.09c-.56.16-1.15.29-1.77.37-2.19.3-4.43-.17-6.04-1.38-.8-.6-1.4-1.38-1.74-2.21-.17-.42-.28-.84-.31-1.27-.02-.21,0-.47.04-.65.04-.2.1-.39.16-.57.28-.73.8-1.23,1.31-1.52.32-.18.63-.29.91-.35ZM32.31,15.66c-.56.08-1.56.24-2.7.51l.05.09c.3.54.5,1.05.6,1.53.11.54.06,1.12-.2,1.65-.26.54-.68.9-1.11,1.06-.44.16-.74.24-1.17.23-.42-.01-.85-.16-1.13-.42-.55-.49-.63-1.26-.58-1.5.11-.48.39-.67.62-.77.23-.11.36-.08.36-.08,0,0-.13,0-.32.14-.53.57-.31,1.3.13,1.58.21.14.61.3.91.27.3-.03.54-.04.84-.21.3-.17.52-.4.61-.68.1-.28.07-.64-.05-1.01-.17-.51-.48-1.04-.88-1.54-1.12.35-2.25.84-3.16,1.49,0,0,.08-.31.24-.79-.15.09-.3.19-.45.31-.37.32-.69.77-.81,1.34-.06.28-.09.59-.02.86.06.29.19.6.35.9.34.6.86,1.14,1.52,1.55.66.41,1.46.69,2.32.85.86.15,1.77.16,2.71.03.38-.05.75-.12,1.12-.2-.67-1.51-1.22-4.03.2-7.23ZM97.22,27.47l-.54-.37s-.44.34-.96.34c-.76,0-1.18-.39-1.18-1.04,0-1.16,1.43-1.2,1.93-1.19,0,0,.05-.25-.03-.43-.06-.12-.18-.2-.38-.2-.32-.01-.79.22-1.08.4l-.32-.67s.76-.48,1.55-.47c.55,0,.77.15.87.23.27.22.31.34.31.9,0,0-.03,1.53-.03,1.62,0,.09.33.36.33.36l-.47.52Z"/>
</svg>