<?xml version="1.0" encoding="UTF-8"?>
<svg id="Layer_1" xmlns="http://www.w3.org/2000/svg" viewBox="0 0 86.55 54.58">
  <defs>
    <style>
      .cls-1 {
        fill: #394c59;
      }
    </style>
  </defs>
  <path class="cls-1" d="M37.29,13.82h0s-.05,0-.07.01h.07Z"/>
  <polygon class="cls-1" points="26.48 17.6 26.49 17.59 26.51 17.58 26.53 17.57 26.53 17.57 26.52 17.57 26.48 17.6"/>
  <path class="cls-1" d="M35.71,14.12s-.04.01-.06.01h.06Z"/>
  <path class="cls-1" d="M54.24,15.2s-.02,0-.03,0c.5.17.99.37,1.49.56-.46-.18-.93-.37-1.4-.53-.02,0-.04-.01-.05-.02Z"/>
  <path class="cls-1" d="M58.95,17.21c.38.2.75.41,1.12.62-.31-.18-.62-.36-.94-.52-.06-.03-.12-.06-.18-.09Z"/>
  <path class="cls-1" d="M30.99,15.51c.09-.03.18-.07.26-.1-.03.01-.06.02-.08.03-.06.02-.12.05-.18.07Z"/>
  <path class="cls-1" d="M56.64,16.12c.44.18.86.39,1.29.59-.39-.19-.78-.38-1.18-.55-.04-.02-.07-.03-.11-.04Z"/>
  <path class="cls-1" d="M19.17,23.17h0c-.15.15-.28.32-.42.47.25-.27.5-.54.76-.79-.03.03-.07.06-.1.09l-.23.23Z"/>
  <path class="cls-1" d="M26.69,17.48h0c.52-.28,1.05-.55,1.59-.81-.54.26-1.07.53-1.59.81h0Z"/>
  <path class="cls-1" d="M28.93,16.37c-.11.05-.21.1-.32.15.4-.19.81-.37,1.22-.54-.07.03-.15.06-.22.09-.23.1-.45.21-.68.31Z"/>
  <path class="cls-1" d="M34.34,14.45h-.04s-.02.02-.04.02c-.03,0-.06.01-.09.02h0s-.14.04-.14.04c-.07.02-.13.04-.2.06l.21-.06c-.09.02-.18.05-.27.07-.02,0-.03.01-.05.01l.57-.16s0,0,0,0h.05Z"/>
  <polygon class="cls-1" points="72.53 .4 72.53 .4 72.56 .39 72.53 .4"/>
  <polygon class="cls-1" points="72.6 .38 72.59 .38 72.61 .37 72.6 .38"/>
  <path class="cls-1" d="M82.52,33.81h-2.03v.79c-.14-.32-.68-1-1.91-1-2.03,0-3.35,1.57-3.35,3.62s1.39,3.66,3.42,3.66c.85,0,1.54-.42,1.85-1.08v.07l.06.82h2.02c-.01-.16-.06-.6-.06-1.24v-5.64ZM78.92,39.06c-.88,0-1.58-.69-1.58-1.83s.68-1.81,1.58-1.81c.85,0,1.56.62,1.56,1.81s-.73,1.83-1.56,1.83Z"/>
  <polygon class="cls-1" points="72.57 .39 72.56 .39 72.59 .38 72.57 .39"/>
  <path class="cls-1" d="M72.37,34.73v-.92h-2.03v6.87h2.1v-3c0-1.37.76-1.87,1.61-1.87l.66.07v-2.07l-.55-.07c-.55,0-1.43.22-1.79.99Z"/>
  <path class="cls-1" d="M60.16,40.8c.67,0,1.01-.15,1.1-.19v-1.74l-.55.07c-.46,0-.76-.15-.76-.72v-2.44h1.34v-1.97h-1.34v-2.01h-1.88v.89c0,.64-.34,1.12-1.06,1.12h-.35v1.97h1.22v2.81c0,1.38.87,2.21,2.29,2.21Z"/>
  <path class="cls-1" d="M68.83,33.81h-2.1v3.91c0,.69-.45,1.18-1.15,1.18-.75,0-1.1-.53-1.1-1.19v-3.9h-2.1v4.34c0,1.47.94,2.69,2.62,2.69.69,0,1.48-.25,1.84-.84l.06.69h2.02c-.01-.11-.07-.61-.07-1.24v-5.64Z"/>
  <polygon class="cls-1" points="53.05 45.47 51.81 45.47 51.81 54.39 57.27 54.39 57.27 53.24 53.05 53.24 53.05 45.47"/>
  <path class="cls-1" d="M62.02,49.43l-1.33-.29c-.75-.17-1.15-.66-1.15-1.29,0-.84.72-1.49,1.73-1.49,1.25,0,1.78.88,1.89,1.52l1.1-.39c-.2-.97-1.01-2.21-3.02-2.21-1.65,0-2.94,1.26-2.94,2.65s.9,2.16,2.17,2.44l1.27.27c.89.19,1.33.74,1.33,1.39,0,.78-.6,1.42-1.84,1.42-1.34,0-2.05-.91-2.14-1.91l-1.19.38c.17,1.27,1.19,2.65,3.34,2.65,1.9,0,3.09-1.26,3.09-2.64,0-1.25-.84-2.18-2.32-2.51Z"/>
  <polygon class="cls-1" points="72.63 .36 72.61 .37 72.64 .36 72.63 .36"/>
  <path class="cls-1" d="M83.79,7.01v-.04s-.01-.11-.01-.11l-.02-.17h0s-.02-.11-.02-.11l-.04-.2-.02-.08c-.04-.2-.1-.39-.16-.59v-.02s-.01-.01-.01-.01h0s-.04-.12-.04-.12v-.02s-.02-.02-.02-.02v-.02s0,0,0,0v-.02c-.07-.17-.15-.34-.23-.51v-.02s-.01,0-.01,0l-.02-.04v-.02h-.05v-.07l.04.07-.04-.08h0s-.01-.02-.01-.02h0s0-.02,0-.02v-.02s-.02-.02-.02-.02v-.02s-.02-.02-.02-.02v-.02s-.02-.02-.02-.02v-.02s-.02-.02-.02-.02h0s0-.02,0-.02v-.02s-.02-.02-.02-.02v-.02s-.02-.02-.02-.02v-.02s-.02-.02-.02-.02v-.02s-.02-.02-.02-.02h0s0-.02,0-.02v-.02s-.02-.02-.02-.02v-.02s-.01,0-.01,0v-.02s-.02-.02-.02-.02h0s-.01-.02-.01-.02h0s-.01-.02-.01-.02h0s-.01-.02-.01-.02h0s0-.02,0-.02h0s-.01-.02-.01-.02v-.02s-.01,0-.01,0v-.02s-.01,0-.01,0v-.02s-.02-.02-.02-.02h0s-.01-.02-.01-.02v-.02s-.01,0-.01,0v-.02s-.01,0-.01,0v-.02s-.03-.02-.03-.02v-.02s-.03-.02-.03-.02h0s-.01-.02-.01-.02h0s-.01-.02-.01-.02h0s-.01-.02-.01-.02h0s-.01-.02-.01-.02h0s-.01-.02-.01-.02h0s-.01-.02-.01-.02v-.02s-.03-.02-.03-.02v-.02s-.04-.04-.04-.04h0s-.01-.02-.01-.02v-.02s-.01,0-.01,0v-.02s-.03-.02-.03-.02v-.02s-.03-.02-.03-.02l-.56.78s-.05-.08-.07-.11l.55-.78v-.02s-.03-.01-.03-.01l-.02-.02-.02-.02h0s-.01-.02-.01-.02v-.02s-.04-.03-.04-.03c0,0-.01-.02-.02-.02l-.03-.03h-.01s-.02-.03-.02-.03l-.02-.02h0s-.03-.04-.03-.04h0s-.02-.03-.02-.03l-.02-.02h-.01s-.05-.07-.05-.07h0s-.02-.03-.02-.03c-.27-.3-.57-.58-.88-.85-.12-.11-.25-.2-.38-.3-.14-.11-.27-.22-.41-.32h-.03v-.02c-.13-.09-.26-.18-.4-.26h0s-.05-.03-.05-.03h0s-.09-.05-.09-.05h0s-.02-.02-.02-.02h0s-.27-.16-.27-.16l-.06-.03h-.02s-.04-.03-.04-.03l-.05-.02h-.01s-.08-.05-.08-.05l-.04-.02-.12-.06-.35-.16-.08-.03-.08-.03h-.01s-.09-.04-.09-.04h0s-.14-.06-.14-.06c-.05-.02-.09-.03-.14-.05h0s-.12-.05-.12-.05l-.06-.02-.1-.03-.08-.02-.12-.04-.25-.07c-.06-.02-.11-.03-.17-.05h-.02s-.04-.01-.04-.01l-.09-.02-.18-.04c-.15-.03-.3-.06-.45-.08h-.03s-.07-.02-.11-.02h-.03s-.14-.02-.14-.02l-.16-.02h-.02s-.08-.01-.08-.01l-.18-.02h-.11s-.12-.01-.12-.01c-.01,0-.03,0-.04,0h-.87s0,0,0,0h-.05s-.01,0-.01,0h0s-.01,0-.01,0h0s-.04,0-.04,0h-.01s0,0,0,0h0s0,0,0,0h0s0,0,0,0h0s0,0,0,0h0s0,0,0,0h0s-.01,0-.01,0h0s-.01,0-.01,0h0s-.01,0-.01,0h-.01s-.01,0-.01,0h-.01s0,0,0,0h-.01s0,0,0,0h0s0,0,0,0h0s0,0,0,0h0s0,0,0,0h-.01s-.01,0-.01,0h-.02s-.01,0-.01,0h-.03s-.02,0-.02,0h-.01s-.02,0-.02,0h0s-.03,0-.03,0h0s-.03,0-.03,0h-.03s-.01,0-.01,0h-.02s-.02,0-.02,0h0s-.03,0-.03,0h-.03s-.03,0-.03,0h-.01s-.02,0-.02,0h-.02s0,0,0,0h.01s-.01,0-.01,0h-.03s-.03,0-.03,0h-.03s-.03,0-.03,0h0s-.01,0-.01,0h-.02s-.02,0-.02,0h0s0,0,0,0h0s-.02,0-.02,0h0s-.03,0-.03,0h-.03s-.01,0-.01,0h-.02s-.02,0-.02,0h0s0,0,0,0h0s-.03,0-.03,0h0s-.03,0-.03,0h-.03s0,0,0,0h-.02s-.02,0-.02,0h-.01s-.02,0-.02,0h0s0,0,0,0h0s-.03,0-.03,0h0s-.03,0-.03,0h0s0,0,0,0h-.02s-.01,0-.01,0h-.02s-.02,0-.02,0h0s-.02,0-.02,0h0s-.03,0-.03,0h0s0,0,0,0h-.02s0,0,0,0h0s0,0,0,0h-.02s-.02,0-.02,0h0s0,0,0,0h0s-.02,0-.02,0h0s0,0,0,0h0s-.03,0-.03,0h-.03s0,0,0,0h-.02s0,0,0,0h0s-.01,0-.01,0h-.01s0,0,0,0h0s-.02,0-.02,0h0s0,0,0,0h0s-.02,0-.02,0h0s-.03,0-.03,0h0s0,0,0,0h0s-.02,0-.02,0h-.01s-.01,0-.01,0h0s-.01,0-.01,0h-.01s-.02.01-.02.01h0s-.03,0-.03,0l-.14.05h-.02s0,0,0,0h-.02s0,.01,0,.01h-.02s-.03.02-.03.02h-.02s0,0,0,0h-.03s-.09.05-.09.05l-.09.04-.04.02-.05.02-.04.02h-.02s-.02.02-.02.02l-.09.04h-.01s-.09.05-.09.05l-.06.03h-.02s-.02.02-.02.02h-.01s-.01.01-.01.01h-.01s-.01.01-.01.01h-.01s-.01.01-.01.01h-.01s-.01.01-.01.01h-.01s-.01.01-.01.01h-.01s-.01.01-.01.01h0s-.01.01-.01.01h-.01s0,.01,0,.01h-.01s-.01.01-.01.01h-.01s-.01.01-.01.01h-.01s-.01.01-.01.01h0s-.01.01-.01.01h-.01s-.01.01-.01.01h0s0,.01,0,.01h0s-.01,0-.01,0h-.01s-.01.01-.01.01h0s-.05.04-.05.04h-.01s-.13.1-.13.1l-.05.03h0s-.03.02-.03.02l-.04.03h0s-.03.03-.03.03l-.07.06h-.01s0,.01,0,.01h0s0,0,0,0l-.02.02h-.01s-.01.02-.01.02l-.1.09h-.01s-.01.02-.01.02h-.01s-.01.02-.01.02h-.01s-.01.02-.01.02h0s-.04.04-.04.04l-.07.07-.02.02v.04h-.04l.04-.04-.04.04h0s-.1.11-.1.11l-.03.03h0s-.06.08-.06.08v.02s-.04.04-.04.04l-.03.04-.03.04h-.01v.02h0l-.02.02h0s0,.02,0,.02l-.02.02h0s0,.02,0,.02h0s0,0,0,0h0s0,.02,0,.02h0s0,.02,0,.02h0s0,.01,0,.01l-.05.06h0s-.07.09-.07.09h0s0,.02,0,.02h0s-.02.04-.02.04l-.03.04-.08.13-.02.02c-.06.1-.12.21-.18.31h0s-.04.1-.04.1h0s-.08.17-.08.17h0c-.07.18-.14.36-.19.54l-.06.22h0s-.04.18-.04.18h0s0,.01,0,.01h0s0,.02,0,.02h0s0,.02,0,.02h0s0,.02,0,.02h0s0,.02,0,.02h0s0,.01,0,.01h0s0,.03,0,.03h0s0,.03,0,.03h0s0,.02,0,.02h0s0,.02,0,.02h0s0,.02,0,.02h0s0,.02,0,.02h0s0,.01,0,.01v.03s0,0,0,0h0s0,.01,0,.01h0s0,.01,0,.01h0s0,.02,0,.02h0s0,.02,0,.02h0s0,.02,0,.02h0s0,.02,0,.02h0v.02h0s0,.02,0,.02h0v.02h0s0,.02,0,.02h0s0,.02,0,.02h0v.02h0v.02h0s0,.02,0,.02h0s0,.02,0,.02h0s0,.02,0,.02v.02s0,.04,0,.04h0v.46h0s0,.02,0,.02h0s0,.02,0,.02h0s0,.02,0,.02h0s0,.02,0,.02h0s0,.02,0,.02h0v.02h0s.02.18.02.18v.02s0,0,0,0v.02s0,.02,0,.02v.02s0,.04,0,.04v.02s0,.02,0,.02v.02s0,.02,0,.02h0s0,.03,0,.03v.02s0,.02,0,.02v.02s0,.02,0,.02v.02s0,.02,0,.02v.02s0,.01,0,.01h0s0,.03,0,.03v.02s0,.02,0,.02v.02s0,.02,0,.02v.02s0,.02,0,.02v.02s0,0,0,0h0s0,.03,0,.03v.02s.01.02.01.02v.02s.01.02.01.02v.02s.01.02.01.02v.02s0,0,0,0v.02s.01.02.01.02v.02s.01.02.01.02v.02s.01.02.01.02v.02s.01.02.01.02v.02s0,0,0,0v.02s.01.02.01.02l.03.11v.02s.01.02.01.02v.02s.01.02.01.02h.05v.14h0s.11.29.11.29l.03.06.04.09.15.32c.1.2.21.4.34.6v.02s.06.07.06.07l.02.02.19.28.02.02.13.18.02.02.02.02.05.07.02.02.02.02.02.02.09.11.08.1h0s.03,0,.03,0v.04l.05.06h0s.2.22.2.22l.02.02.02.02h.07v.07h0s.03.04.03.04l.26.25h.07v.06h0s.02.02.02.02l.17.15.03.03.12.1h.02v.02l.11.09.03.02.07.05h.02s0,.02,0,.02l.1.07h0s.01.01.01.01h0s.01.01.01.01h0s.01.01.01.01h.01s0,.01,0,.01h0s0,0,0,0h0s.01.01.01.01h0s.01.01.01.01h.01s0,.01,0,.01h0s.01.01.01.01h0s.01.01.01.01h.01s0,.01,0,.01h.01s.01.01.01.01h0s0,.01,0,.01h0s.01.01.01.01h.01s0,0,0,0h0s.01.01.01.01h.01s0,.01,0,.01h.01s.01.01.01.01h0s.01.01.01.01h.01s0,.01,0,.01h.01s.01.01.01.01h.01s0,.01,0,.01h.01s.01.01.01.01h.01s.01.01.01.01h0s0,.01,0,.01h0s.01,0,.01,0h.01s0,.01,0,.01h.01s.01.01.01.01h.01s0,.01,0,.01h.01s.01.01.01.01h.01s.01.01.01.01h0s.01.01.01.01h.01s.01.01.01.01h.01s.1,0,.1,0v.06h.02s.02.02.02.02h.02s.14.09.14.09h.02s.02.02.02.02h.02s.02.02.02.02h.02s.06.04.06.04h.02s.02.02.02.02h.02s.02.02.02.02h.02s.02.02.02.02h.02s.02.02.02.02h.02s0,.01,0,.01h.02s.02.02.02.02h.02s.02.02.02.02h.02s.02.02.02.02h.02s.02.02.02.02h.02s.02.02.02.02h0s.04.02.04.02h.02s.02.02.02.02h.02s.02.02.02.02h.02s.02.02.02.02h.02s.02.02.02.02h0s.02,0,.02,0h.02s.02.02.02.02h.02s.02.02.02.02h.02s.02.02.02.02h.02s.02.02.02.02h.02s.01.01.01.01h0s.02.01.02.01h.02s.02.02.02.02h.02s.02.02.02.02h.02s.1,0,.1,0v.04h.02s.02.01.02.01h.02s.02.01.02.01h.02s.03.02.03.02h.02s.02.01.02.01h.02s.02.01.02.01h.02s0,0,0,0h.01s.02,0,.02,0h.02s.02.01.02.01h.02s.02.01.02.01h.03s.02.02.02.02h.02s.02.01.02.01h.02s.02.01.02.01h.01s0,0,0,0h.02s.02.01.02.01h.02s.02.01.02.01h.02s.02.01.02.01h.02s.02,0,.02,0h.02s.02,0,.02,0h.02s.02.01.02.01h.02s0,0,0,0h.03s.02.01.02.01h.02s.02,0,.02,0h.02s.02,0,.02,0h.02s.02,0,.02,0h.02s.02,0,.02,0h.02s.05.02.05.02h.02s.02,0,.02,0h.02s.02,0,.02,0h.02s.02,0,.02,0h.02s.02,0,.02,0h.02s.02,0,.02,0h.69v.12l.59-.85s.01,0,.02,0l-.61.85h.01s.02,0,.02,0h.01s.01,0,.01,0h.01s0,0,0,0h.02s.01,0,.01,0h.02s.01,0,.01,0h.01s.02,0,.02,0h.01s.01,0,.01,0h.02s.01,0,.01,0h.01s.02,0,.02,0h.01s.02,0,.02,0h.04s.01,0,.01,0h.02s.01,0,.01,0h.02s.01,0,.01,0h.02s.01,0,.01,0h.02s.01,0,.01,0h.02s.01,0,.01,0h.02s.01,0,.01,0h.02s.01,0,.01,0h.02s.01,0,.01,0h.01s.01,0,.01,0h.02s.02,0,.02,0h.01s.02,0,.02,0h.01s.02,0,.02,0h.01s.02,0,.02,0h.01s.01,0,.01,0h.03s.01,0,.01,0h.06s.01,0,.01,0h.21s.05,0,.05,0h.05s.05,0,.05,0h.05s.05,0,.05,0h0s.05,0,.05,0h.05s.05,0,.05,0h.05s.05,0,.05,0h.05s.05,0,.05,0h.05s.05-.01.05-.01h.1s.05-.02.05-.02h.05s.05-.01.05-.01h.05s.1-.02.1-.02h0s.05-.01.05-.01h.05s.05-.02.05-.02l.15-.03h.05s.05-.02.05-.02h.05s0-.01,0-.01h.05s.05-.02.05-.02h.05s.05-.02.05-.02l.1-.03h.05s.05-.03.05-.03h.05s.05-.03.05-.03h.01s.04-.02.04-.02l.05-.02.05-.02.05-.02.05-.02h.02s.03-.02.03-.02l.05-.02.05-.02.05-.02.05-.02h.03s.02-.02.02-.02l.05-.02.05-.02.05-.02.05-.02.04-.02h0s.05-.03.05-.03l.05-.02.1-.04.05-.02h.03s.02-.02.02-.02h.01s.03-.02.03-.02h.01s.02-.01.02-.01h0s0,0,0,0h.03s.02-.02.02-.02h.03s.02-.02.02-.02h.03s.02-.02.02-.02c.67-.32,1.21-.69,1.64-1.1h0s.02-.03.02-.03h0s.02-.03.02-.03h0s.02-.03.02-.03h.01s.02-.03.02-.03h.01s.02-.03.02-.03h.01s.02-.03.02-.03h.01s.02-.03.02-.03v-.02s.03-.02.03-.02l.02-.02v-.02s.03-.02.03-.02h.01s.02-.03.02-.03h.01s.02-.03.02-.03h0s.03-.04.03-.04l.02-.02.15-.2h0l.07-.09v-.02s.03-.03.03-.03h0s0-.01,0-.01l.1-.16h0s0-.01,0-.01l.08-.15h0s0-.01,0-.01h0s0-.02,0-.02l.06-.11h0s0-.02,0-.02h0s0-.02,0-.02h0s0-.01,0-.01h0s0-.02,0-.02h0s.04-.1.04-.1h0s-.06.1-.06.1c.02-.04.05-.07.06-.11v-.04h.02l.07-.19v-.02s.02-.03.02-.03v-.02s.01-.02.01-.02v-.02s.01-.02.01-.02v-.02s.02-.05.02-.05v-.02s0-.02,0-.02v-.02s0-.02,0-.02v-.02s0-.02,0-.02v-.02s0-.02,0-.02v-.03s.01-.02.01-.02v-.02s0-.02,0-.02v-.02s0-.02,0-.02v-.02s0-.02,0-.02v-.02s0-.02,0-.02v-.03s.01-.02.01-.02v-.02s0-.02,0-.02v-.02s0-.02,0-.02v-.02s0-.02,0-.02v-.02s0-.02,0-.02v-.02s0,0,0,0h0s0-.03,0-.03v-.02s0-.02,0-.02v-.08s.01-.02.01-.02v-.02s0,0,0,0h0s0-.03,0-.03v-.13s.01-.02.01-.02h0s0-.02,0-.02v-.02s0-.02,0-.02v-.07s0-.08,0-.08v-.33s0-.03,0-.03Z"/>
  <rect class="cls-1" x="72.5" y=".4" width=".03" height="0" transform="translate(3.85 23.72) rotate(-19.07)"/>
  <path class="cls-1" d="M52.73,35.54c.76,0,1.12.51,1.12,1.18v3.96h2.1v-4.32c0-1.51-.78-2.74-2.51-2.74-.71,0-1.54.31-1.92.97v-.79h-2.03v6.87h2.1v-3.94c0-.7.44-1.2,1.13-1.2Z"/>
  <path class="cls-1" d="M85.35,31.87c-.66,0-1.19.54-1.19,1.2s.53,1.2,1.19,1.2,1.2-.54,1.2-1.2-.54-1.2-1.2-1.2ZM85.35,34.02c-.51,0-.92-.42-.92-.95s.4-.94.92-.94.92.41.92.94-.41.95-.92.95Z"/>
  <path class="cls-1" d="M85.88,32.83l-.44-.42h-.52v1.3h.31v-.45h.1l.23.45h.34l-.26-.5.25-.38ZM85.38,33h-.15v-.34h.15l.19.17-.19.17Z"/>
  <polygon class="cls-1" points="73.79 .08 73.77 .09 73.79 .08 73.79 .08"/>
  <polygon class="cls-1" points="72.66 .35 72.64 .36 72.66 .35 72.66 .35"/>
  <polygon class="cls-1" points="73.76 .09 73.76 .09 73.77 .09 73.76 .09"/>
  <path class="cls-1" d="M66.87,22.83s-.04-.04-.06-.06c.46.44.91.9,1.35,1.37-.3-.32-.61-.65-.92-.96-.12-.12-.24-.24-.36-.36Z"/>
  <polygon class="cls-1" points="36.24 33.81 33.96 33.81 36.78 40.68 38.9 40.68 41.51 33.81 39.3 33.81 37.84 38.07 36.24 33.81"/>
  <path class="cls-1" d="M69.85,26.06c-.36-.44-.72-.88-1.1-1.31-.03-.04-.07-.07-.1-.11-.04-.04-.08-.09-.12-.13l.22.25.1.11c.46.52.89,1.05,1.32,1.59-.03-.04-.06-.08-.09-.12-.07-.09-.14-.18-.21-.27Z"/>
  <path class="cls-1" d="M16.67,25.62l.53-.27c.49-.6,1.02-1.15,1.54-1.71-.16.17-.33.34-.49.51.3-.33.59-.66.9-.97h0c.08-.09.16-.16.24-.25l.04-.04.06-.07s.09-.08.13-.13c-.05.05-.09.1-.13.14.61-.6,1.24-1.18,1.89-1.73.24-.2.48-.4.72-.59l.02-.02.02-.02.13-.11h0s.04-.04.04-.04l.02-.02.02-.02.02-.02.07-.05c.32-.25.64-.49.98-.73l.06-.04.26-.18.07-.05.02-.02h0s0-.01,0-.01l.04-.03.26-.18.1-.06.23-.15.1-.07.29-.19.1-.06.04-.02.14-.09,1.3-.76h0s0,0,0,0l.05-.03h.02s0,0,0,0h0s0,0,0,0h.02s.02-.02.02-.02h.02s.02-.02.02-.02h.02s.02-.02.02-.02l.03-.02h.02c.54-.3,1.08-.58,1.64-.84-.01,0-.03.01-.04.02.11-.05.22-.1.33-.15-.05.02-.1.04-.15.06.15-.07.31-.14.47-.21.23-.1.45-.21.68-.31.09-.04.18-.07.26-.11-.01,0-.03.01-.04.02.12-.05.24-.09.36-.14.26-.11.53-.21.8-.31-.08.03-.15.06-.23.09.14-.05.27-.11.41-.16.05-.02.09-.03.14-.05-.02,0-.04.01-.06.02.09-.03.19-.06.28-.1.41-.15.83-.29,1.25-.42.31-.1.63-.19.95-.28l-.7.19.06-.02c.23-.07.46-.13.69-.19.02,0,.04-.01.06-.02l-.41.11.24-.07.37-.1s.09-.03.14-.04l.12-.03s.04-.01.06-.02h-.01s-.05.02-.05.02c.45-.12.9-.23,1.36-.33l-.15.04h-.05s.35-.07.35-.07l-.09.02c.5-.11,1-.2,1.51-.29l-.11.02.18-.03h0c.54-.09,1.09-.17,1.64-.23h.05s.17-.03.17-.03h.1s.11-.02.11-.02h.06s.03,0,.03,0h.05s.08-.01.08-.01l.3-.03h0s0,0,0,0h0s0,0,0,0h0s.07,0,.07,0h.01s.1,0,.1,0h.05s0,0,0,0h.02s0,0,0,0h.01s0,0,0,0l.4-.03h.05s0,0,0,0h.15s.11-.02.11-.02h0s.13,0,.13,0h.08s.04,0,.04,0h.11s.1,0,.1,0h.16s.27-.02.27-.02h.03s.03,0,.03,0h.41s.03-.01.03-.01h.03s.15,0,.15,0h.03s.03,0,.03,0h.49c1.8,0,3.62.14,5.41.41,1.21.19,2.4.45,3.57.76.74.2,1.48.42,2.21.66-.73-.25-1.46-.46-2.21-.66.75.2,1.5.42,2.24.67.02,0,.04.01.05.02.69.23,1.36.5,2.03.77-.21-.09-.42-.16-.63-.24.23.09.46.17.68.26.09.04.18.07.27.11-.03-.01-.07-.03-.1-.05.07.03.14.06.21.09.63.27,1.25.56,1.86.87-.23-.11-.46-.21-.69-.32.25.12.51.23.75.35.09.05.18.09.27.14-.05-.03-.1-.06-.16-.09.11.06.22.12.34.18.6.31,1.19.63,1.76.98-.27-.16-.55-.3-.82-.46.3.17.6.33.9.5-.01,0-.03-.02-.04-.03.02.01.03.02.05.03.12.07.23.14.34.22.49.3.96.61,1.43.94-.19-.13-.39-.25-.58-.38.26.17.52.33.78.51.04.03.09.06.13.09-.01,0-.03-.02-.04-.03.08.05.15.11.23.16.52.37,1.03.76,1.52,1.16-.18-.15-.37-.28-.55-.42.23.18.46.35.69.53.05.04.09.08.14.11-.02-.02-.05-.04-.07-.06.12.1.24.2.35.3.52.44,1.04.9,1.53,1.37.12.12.24.24.36.36.41.41.82.82,1.21,1.25-.09-.1-.2-.19-.29-.29.12.13.24.25.36.37l-.06-.07c.06.07.13.13.19.2.03.04.07.07.11.11.38.43.74.87,1.1,1.31.07.09.14.18.21.27.24.31.49.63.72.95-.2-.28-.42-.55-.63-.83.26.33.52.66.76,1,.23.33.59.52,1,.52l.83-.31c.17-.15.36-.42.36-.84,0-19.38-18.11-20.89-23.66-20.89-6.63,0-13.69,1.86-19.88,5.23-6.37,3.47-11.18,8.24-13.58,13.44l.04.66.64.35ZM38.75,13.61h-.01s0,0,0,0h0ZM32.03,15.15c.25-.08.49-.17.74-.25-.26.08-.5.16-.74.25ZM25.49,18.17h-.01s0,0,0,0h0ZM20.15,22.22c.3-.28.6-.55.9-.82l.07-.06c.08-.07.17-.14.25-.21-.55.46-1.09.95-1.61,1.45.1-.1.2-.19.3-.29l.08-.07Z"/>
  <path class="cls-1" d="M48.4,37.12c0-2.21-1.31-3.53-3.44-3.53-1.78,0-3.43,1.41-3.43,3.62s1.69,3.67,3.58,3.67c1.74,0,2.84-.99,3.17-2.18l-1.76-.5c-.19.53-.62.89-1.38.89-.82,0-1.52-.55-1.56-1.32h4.78l.04-.65ZM43.62,36.42c.04-.51.49-1.17,1.37-1.17,1,0,1.35.64,1.38,1.17h-2.75Z"/>
  <path class="cls-1" d="M60.98,18.33s0,0-.01,0c.41.25.8.52,1.2.78-.28-.19-.56-.38-.85-.56-.11-.07-.23-.15-.34-.22Z"/>
  <path class="cls-1" d="M63.08,19.71c.39.28.77.58,1.16.87-.32-.25-.64-.51-.97-.75-.06-.04-.13-.09-.19-.13Z"/>
  <path class="cls-1" d="M66.23,22.26c.19.17.39.34.58.52-.19-.18-.39-.34-.58-.52Z"/>
  <path class="cls-1" d="M65.06,21.22c.4.33.79.68,1.18,1.03-.3-.27-.59-.54-.89-.8-.09-.08-.19-.16-.28-.23Z"/>
  <path class="cls-1" d="M10.81,33.6c-2.04,0-3.65,1.51-3.65,3.64s1.61,3.66,3.65,3.66,3.65-1.52,3.65-3.66-1.59-3.64-3.65-3.64ZM10.81,38.95c-.79,0-1.55-.57-1.55-1.72s.76-1.7,1.55-1.7,1.55.53,1.55,1.7-.75,1.72-1.55,1.72Z"/>
  <path class="cls-1" d="M31.73,38.68l.71,2h2.38l-3.65-9.81h-2.53l-3.69,9.81h2.29l.7-2h3.79ZM29.86,33.31l1.17,3.39h-2.38l1.21-3.39Z"/>
  <polygon class="cls-1" points="24.59 49.29 20.03 49.29 20.03 45.47 18.8 45.47 18.8 54.39 20.03 54.39 20.03 50.43 24.59 50.43 24.59 54.39 25.82 54.39 25.82 45.47 24.59 45.47 24.59 49.29"/>
  <path class="cls-1" d="M31.84,45.29c-2.24,0-4.48,1.65-4.48,4.64s2.24,4.65,4.48,4.65,4.48-1.67,4.48-4.65-2.24-4.64-4.48-4.64ZM31.84,53.45c-1.66,0-3.22-1.19-3.22-3.52s1.56-3.51,3.22-3.51,3.22,1.18,3.22,3.51-1.56,3.52-3.22,3.52Z"/>
  <polygon class="cls-1" points="36.53 46.62 39.51 46.62 39.51 54.39 40.75 54.39 40.75 46.62 43.73 46.62 43.73 45.47 36.53 45.47 36.53 46.62"/>
  <path class="cls-1" d="M3.7,30.87H0v9.81h2.19v-3.53h1.51c1.99,0,3.36-1.28,3.36-3.14s-1.37-3.14-3.36-3.14ZM3.47,35.27h-1.27v-2.5h1.27c.84,0,1.4.48,1.4,1.26s-.57,1.24-1.4,1.24Z"/>
  <path class="cls-1" d="M24.98,35.78v-1.97h-1.34v-2.01h-1.88v.89c0,.64-.34,1.12-1.06,1.12h-.35v1.97h1.22v2.81c0,1.38.87,2.21,2.29,2.21h.33s.72-1.92.72-1.92l-.5.06c-.46,0-.76-.15-.76-.72v-2.44h1.34Z"/>
  <polygon class="cls-1" points="44.8 54.39 50.22 54.39 50.22 53.25 46.03 53.25 46.03 50.52 49.83 50.52 49.83 49.36 46.03 49.36 46.03 46.62 50.22 46.62 50.22 45.47 44.8 45.47 44.8 54.39"/>
  <path class="cls-1" d="M19.91,35.88v-2.07l-.55-.07c-.55,0-1.42.22-1.78.99v-.92h-2.03v6.87h2.1v-3c0-1.37.76-1.87,1.6-1.87l.66.07Z"/>
</svg>