<?xml version="1.0" encoding="UTF-8"?>
<svg id="Layer_1" xmlns="http://www.w3.org/2000/svg" viewBox="0 0 56.16 56.16">
  <defs>
    <style>
      .cls-1 {
        fill: #394c59;
      }
    </style>
  </defs>
  <path class="cls-1" d="M39.68,28.16h-17.6c-.21,0-.37-.17-.37-.37s.17-.37.37-.37h19.46c0-.18-.02-.36-.04-.54h-20.42c-.21,0-.37-.17-.37-.37s.17-.37.37-.37h20.33c-.03-.18-.06-.36-.09-.54h-16.41c-.21,0-.37-.17-.37-.37s.17-.37.37-.37h16.25c-.04-.18-.09-.36-.14-.54h-15.17c-.21,0-.37-.17-.37-.37s.17-.37.37-.37h14.93c-.06-.18-.13-.36-.2-.54h-7.99c-.21,0-.37-.17-.37-.37s.17-.37.37-.37h7.66c-.09-.18-.18-.36-.27-.54h-7.39c-.21,0-.37-.17-.37-.37s.17-.37.37-.37h6.96c-.11-.18-.23-.36-.35-.54h-4.73c-.21,0-.37-.17-.37-.37s.17-.37.37-.37h4.19c-.14-.18-.29-.36-.45-.54h-6.62c-.21,0-.37-.17-.37-.37s.17-.37.37-.37h5.92c-.19-.18-.38-.36-.58-.54h-4.33c-.21,0-.37-.17-.37-.37s.17-.37.37-.37h3.39c-.26-.19-.53-.37-.8-.54h-2.59c-.21,0-.37-.17-.37-.37s.17-.37.37-.37h1.23c-.43-.2-.87-.38-1.32-.54h-2.56c-.21,0-.37-.17-.37-.37,0-.11.05-.21.12-.28-.53-.06-1.07-.1-1.62-.1-2.95,0-5.69.95-7.91,2.56h.4c.21,0,.37.17.37.37s-.17.37-.37.37h-1.34c-2.84,2.47-4.63,6.11-4.63,10.17,0,7.44,6.03,13.48,13.48,13.48,3.96,0,7.52-1.71,9.98-4.43-.2-.01-.35-.17-.35-.37s.17-.37.37-.37h.61c.45-.57.85-1.18,1.2-1.82h-3.48c-.21,0-.37-.17-.37-.37s.17-.37.37-.37h3.86c.08-.18.16-.36.24-.54h-5.03c-.21,0-.37-.17-.37-.37s.17-.37.37-.37h5.32c.06-.18.12-.36.18-.54h-10.34c-.21,0-.37-.17-.37-.37s.17-.37.37-.37h10.54c.04-.18.08-.36.12-.54h-1.1c-.21,0-.37-.17-.37-.37s.17-.37.37-.37h1.22c.03-.18.05-.36.07-.54h-3.21c-.21,0-.37-.17-.37-.37s.17-.37.37-.37h3.26c0-.18.01-.36.01-.54h-1.87ZM29.73,23.04h-.92c-.2,0-.37-.17-.37-.37s.17-.37.37-.37h.92c.21,0,.37.17.37.37s-.17.37-.37.37ZM29.76,21.75h-.98c-.21,0-.37-.17-.37-.37s.17-.37.37-.37h.98c.2,0,.37.17.37.37s-.17.37-.37.37ZM28.73,15.89h1.97c.21,0,.37.17.37.37s-.17.37-.37.37h-1.97c-.21,0-.37-.17-.37-.37s.17-.37.37-.37ZM28.73,17.17h1.97c.21,0,.37.17.37.37s-.17.37-.37.37h-1.97c-.21,0-.37-.17-.37-.37s.17-.37.37-.37ZM26.9,18.45h2.8c.21,0,.37.17.37.37s-.17.37-.37.37h-2.8c-.21,0-.37-.17-.37-.37s.17-.37.37-.37ZM26.9,19.73h3.82c.21,0,.37.17.37.37s-.17.37-.37.37h-3.82c-.21,0-.37-.17-.37-.37s.17-.37.37-.37ZM26.74,22.29h.19c.2,0,.37.17.37.37s-.17.37-.37.37h-.19c-.21,0-.37-.17-.37-.37s.17-.37.37-.37ZM37.4,35.11h.26c.2,0,.36.16.36.36s-.16.36-.36.36h-.26c-.2,0-.36-.16-.36-.36s.16-.36.36-.36ZM34.54,35.48c0,.2-.16.36-.36.36h-.21c-.2,0-.36-.16-.36-.36s.16-.36.36-.36h.21c.2,0,.36.16.36.36ZM33.65,34.57h-1.13c-.21,0-.37-.17-.37-.37s.17-.37.37-.37h1.13c.21,0,.37.17.37.37s-.17.37-.37.37ZM31.62,32.55h2c.21,0,.37.17.37.37s-.17.37-.37.37h-2c-.21,0-.37-.17-.37-.37s.17-.37.37-.37ZM23.49,24.32h-3.26c-.21,0-.37-.17-.37-.37s.17-.37.37-.37h3.26c.21,0,.37.17.37.37s-.17.37-.37.37ZM22.57,18.45h.43c.21,0,.37.17.37.37s-.17.37-.37.37h-.43c-.21,0-.37-.17-.37-.37s.17-.37.37-.37ZM22.23,19.73h1.37c.21,0,.37.17.37.37s-.17.37-.37.37h-1.37c-.21,0-.37-.17-.37-.37s.17-.37.37-.37ZM23.41,21.38c0,.21-.17.37-.37.37h-.69c-.21,0-.37-.17-.37-.37s.17-.37.37-.37h.69c.21,0,.37.17.37.37ZM21.45,22.29h2.42c.21,0,.38.17.38.37s-.17.37-.38.37h-2.42c-.21,0-.38-.17-.38-.37s.17-.37.38-.37ZM20.54,21.01h.19c.21,0,.37.17.37.37s-.17.37-.37.37h-.19c-.21,0-.37-.17-.37-.37s.17-.37.37-.37ZM19.41,22.29h.54c.21,0,.37.17.37.37s-.17.37-.37.37h-.54c-.21,0-.37-.17-.37-.37s.17-.37.37-.37ZM18.15,28.7h1.07c.21,0,.37.17.37.37s-.17.37-.37.37h-1.07c-.21,0-.37-.17-.37-.37s.17-.37.37-.37ZM18.43,35.84h-.14c-.2,0-.36-.16-.36-.36s.16-.36.36-.36h.14c.2,0,.36.16.36.36s-.16.36-.36.36ZM21.21,34.57h-2.91c-.21,0-.37-.17-.37-.37s.17-.37.37-.37h2.91c.21,0,.37.17.37.37s-.17.37-.37.37ZM21.24,33.28h-4c-.21,0-.37-.17-.37-.37s.17-.37.37-.37h4c.21,0,.37.17.37.37s-.17.37-.37.37ZM23.07,32.01h-5.84c-.21,0-.37-.17-.37-.37s.17-.37.37-.37h5.84c.21,0,.37.17.37.37s-.17.37-.37.37ZM25.88,34.57h-.12c-.21,0-.37-.17-.37-.37s.17-.37.37-.37h.12c.2,0,.37.17.37.37s-.17.37-.37.37ZM25.88,33.29h-.14c-.21,0-.37-.17-.37-.37s.17-.37.37-.37h.14c.2,0,.37.17.37.37s-.17.37-.37.37ZM26.41,31.63c0-.21.17-.37.37-.37h1.03c.21,0,.37.17.37.37s-.17.37-.37.37h-1.03c-.21,0-.37-.17-.37-.37ZM27.44,32.92c0-.21.17-.37.37-.37h1.01c.21,0,.37.17.37.37s-.17.37-.37.37h-1.01c-.21,0-.37-.17-.37-.37ZM28.81,38.42h-.15c-.21,0-.38-.17-.38-.39s.17-.38.38-.38h.15c.21,0,.38.17.38.38s-.17.39-.38.39ZM28.83,37.13h-.46c-.2,0-.36-.16-.36-.36s.16-.36.36-.36h.46c.2,0,.36.16.36.36s-.16.36-.36.36ZM29.74,35.84h-.46c-.2,0-.36-.16-.36-.36s.16-.36.36-.36h.46c.2,0,.36.16.36.36s-.16.36-.36.36ZM30.52,34.2c0,.21-.17.37-.37.37h-1.06c-.21,0-.37-.17-.37-.37s.17-.37.37-.37h1.06c.21,0,.37.17.37.37ZM34.52,30.72h-17.31c-.21,0-.37-.17-.37-.37s.17-.37.37-.37h17.31c.21,0,.37.17.37.37s-.17.37-.37.37ZM36.52,29.44h-14.44c-.21,0-.37-.17-.37-.37s.17-.37.37-.37h14.44c.21,0,.37.17.37.37s-.17.37-.37.37ZM37.39,30.72h-.13c-.21,0-.37-.17-.37-.37s.17-.37.37-.37h.13c.21,0,.37.17.37.37s-.17.37-.37.37Z"/>
  <path class="cls-1" d="M47.94,8.22C42.85,3.14,35.83,0,28.08,0S13.31,3.14,8.22,8.22C3.14,13.31,0,20.33,0,28.08s3.14,14.77,8.22,19.86c5.08,5.08,12.1,8.22,19.86,8.22s14.77-3.14,19.86-8.22c5.08-5.08,8.22-12.1,8.22-19.86s-3.14-14.77-8.22-19.86ZM28.08,55.49C12.94,55.49.67,43.22.67,28.08S12.94.67,28.08.67s27.41,12.27,27.41,27.41-12.27,27.41-27.41,27.41Z"/>
  <path class="cls-1" d="M28.08,3.04C14.25,3.04,3.04,14.25,3.04,28.08s11.21,25.04,25.04,25.04,25.04-11.21,25.04-25.04S41.91,3.04,28.08,3.04ZM41.6,9.39l.25.18c.29.23.26.45.19.68l-1.79,6.25-1.03-.93.34-1.21-1.2-.92,1.04-.67.52.4.61-2.15-3.93,2.55-1.15-.64,5.44-3.54c.2-.13.41-.21.7,0ZM30.18,10.9l1.02-3.89c.35-1.32,1.34-1.58,2.4-1.3l2.3.61-.29,1.13-2.23-.59c-.58-.14-.85-.05-1.01.6l-.15.58,2.77.73-.29,1.11-2.77-.73-.65,2.52-.76-.19c-.26-.07-.41-.29-.34-.57ZM21.92,5.82l3.83-.78.24,1.14-3.08.63.29,1.39,2.81-.57.22,1.12-2.81.58.12.59c.13.65.39.77.97.65l2.26-.46.23,1.14-2.33.48c-1.08.22-2.06-.08-2.33-1.43l-.81-3.94c-.06-.29.1-.49.37-.55ZM13.33,10.67l2.16,2.66c.43.52.71.7,1.15.75.36.04.77-.1,1.1-.37.34-.28.56-.64.59-1.01.04-.44-.08-.76-.51-1.28l-2.17-2.66.96-.78,2.37,2.91c.49.61.69,1.23.62,1.89-.09.74-.44,1.34-1.09,1.88-.66.53-1.32.75-2.07.68-.65-.06-1.22-.38-1.72-1l-2.37-2.91.96-.78ZM41.59,33.79c-.37.87-.82,1.71-1.35,2.49-.52.78-1.13,1.51-1.79,2.17-.66.66-1.39,1.27-2.17,1.79-.78.53-1.62.98-2.49,1.35-1.81.76-3.73,1.15-5.71,1.15s-3.9-.39-5.71-1.15c-.87-.37-1.71-.82-2.49-1.35-.78-.52-1.51-1.13-2.17-1.79-.66-.66-1.27-1.39-1.79-2.17-.53-.78-.98-1.62-1.35-2.49-.76-1.81-1.15-3.73-1.15-5.71s.39-3.9,1.15-5.71c.37-.87.82-1.71,1.35-2.49.52-.78,1.13-1.51,1.79-2.17.66-.66,1.39-1.27,2.17-1.79.78-.53,1.62-.98,2.49-1.35,1.81-.76,3.73-1.15,5.71-1.15s3.9.39,5.71,1.15c.87.37,1.71.82,2.49,1.35.78.52,1.51,1.13,2.17,1.79.66.66,1.27,1.39,1.79,2.17.53.78.98,1.62,1.35,2.49.76,1.81,1.15,3.73,1.15,5.71s-.39,3.9-1.15,5.71Z"/>
</svg>